<?xml version="1.0" encoding="utf-8"?>
<!-- Generator: Adobe Illustrator 24.1.3, SVG Export Plug-In . SVG Version: 6.00 Build 0)  -->
<svg version="1.1" id="Layer_1" xmlns="http://www.w3.org/2000/svg" xmlns:xlink="http://www.w3.org/1999/xlink" x="0px" y="0px"
	 viewBox="0 0 841.9 595.3" style="enable-background:new 0 0 841.9 595.3;" xml:space="preserve">
<style type="text/css">
	.st0{fill:#0B1B33;}
	.st1{fill:#1B70B0;}
	.st2{fill:#62AADC;}
	.st3{fill:#10294E;}
	.st4{fill:#13305B;}
	.st5{fill:#24416C;}
	.st6{fill:#A8B4C5;}
	.st7{fill:url(#Path_15_1_);}
	.st8{fill:url(#Path_16_1_);}
	.st9{fill:url(#Path_19_1_);}
	.st10{fill:url(#Path_21_1_);}
	.st11{fill:url(#Path_22_1_);}
	.st12{fill:#0D203D;}
	.st13{fill:#FFFFFF;}
	.st14{fill:#475F83;}
	.st15{fill:#0E2444;}
	.st16{fill:#0A1A31;}
	.st17{fill:#3485BD;}
	.st18{fill:#365178;}
	.st19{fill:#0D2240;}
	.st20{fill:#A1ADC0;}
	.st21{fill:#071221;}
	.st22{fill:#1A3965;}
	.st23{fill:#10284B;}
	.st24{fill:#9E1D3D;}
	.st25{fill:#C5244C;}
	.st26{fill:#DD6F8B;}
	.st27{fill:#D13C62;}
	.st28{fill:#581022;}
	.st29{fill:#202020;}
	.st30{fill:#171616;}
	.st31{fill:#0074FF;}
	.st32{fill:#FEFEFE;}
	.st33{fill:#FE4B33;}
</style>
<path id="Path_1" class="st0" d="M405.6,80.4c2.4,0.1,4.3,2.2,4.2,4.6v8.6c0.1,2.4-1.8,4.5-4.2,4.6h-22.9c-2.4-0.1-4.3-2.2-4.2-4.6
	V85c-0.1-2.4,1.8-4.5,4.2-4.6H405.6z M405.6,77.9h-22.9c-3.6,0-6.5,3.2-6.5,7.1v8.6c0,3.9,2.9,7.1,6.5,7.1h22.9
	c3.6,0,6.5-3.2,6.5-7.1V85C412.1,81.1,409.2,77.9,405.6,77.9z"/>
<g id="Group_1" transform="translate(-73.133 -53.661)">
	<path id="Path_2" class="st0" d="M503.4,179.6h-69.6c-4.2,0-7.5-3.7-7.5-8.2v23.8c0,4.5,3.4,8.2,7.5,8.2h69.6
		c4.2,0,7.5-3.7,7.5-8.2v-23.8C510.9,175.9,507.5,179.6,503.4,179.6z"/>
	<path id="Path_3" class="st0" d="M503.4,142.9h-69.6c-4.2,0-7.5,3.7-7.5,8.2v20.2c0,4.5,3.4,8.2,7.5,8.2h69.6
		c4.2,0,7.5-3.7,7.5-8.2v-20.2C510.9,146.6,507.5,142.9,503.4,142.9z"/>
</g>
<rect id="Rectangle_1" x="388.1" y="119.7" class="st0" width="9.7" height="11.2"/>
<path id="Path_4" class="st0" d="M403.7,80.4c2.4,0.1,4.3,2.2,4.2,4.6v8.6c0.1,2.4-1.8,4.5-4.2,4.6h-22.9c-2.4-0.1-4.3-2.2-4.2-4.6
	V85c-0.1-2.4,1.8-4.5,4.2-4.6H403.7z M403.7,77.9h-22.9c-3.6,0-6.5,3.2-6.5,7.1v8.6c0,3.9,2.9,7.1,6.5,7.1h22.9
	c3.6,0,6.5-3.2,6.5-7.1V85C410.2,81.1,407.3,77.9,403.7,77.9z"/>
<g id="Group_2" transform="translate(-73.133 -53.661)">
	<path id="Path_5" class="st1" d="M499,179.6h-69.6c-4.2,0-7.5-3.7-7.5-8.2v23.8c0,4.5,3.4,8.2,7.5,8.2H499c4.2,0,7.5-3.7,7.5-8.2
		v-23.8C506.5,175.9,503.1,179.6,499,179.6z"/>
	<path id="Path_6" class="st2" d="M499,142.9h-69.6c-4.2,0-7.5,3.7-7.5,8.2v20.2c0,4.5,3.4,8.2,7.5,8.2H499c4.2,0,7.5-3.7,7.5-8.2
		v-20.2C506.5,146.6,503.1,142.9,499,142.9z"/>
</g>
<rect id="Rectangle_2" x="386.2" y="119.7" class="st0" width="9.7" height="11.2"/>
<path id="Path_7" class="st3" d="M603.7,204.7c-1.4-2.5,7.2-8,5.2-14.1c-1.1-3.3-4.6-4.9-4.3-8.5c0.2-2.4,1.9-3.4,1.3-4.3
	c-0.8-1.3-5,0.2-11.9,1.8c-12.1,2.9-14.7,2-15.9,1.6c-2.1-0.9-3.9-2.3-5.3-4.2c-28.5-3.9-52.7-22.7-63.7-49.2l0,0
	c-6,2.6-6.5,8.5-10.3,8.2c0,0-0.4,0-5.4-2.7c-0.6-5.5-1.4-6.7-2-6.7c-1.7-0.1-5.2,8.3-2.4,11.8c1,1.2,2.3,1.3,2.7,2.7
	c0.5,1.8-1.6,2.7-1.7,4.7c-0.1,3.3,5.3,4.1,6,8.4c0.5,2.9-1.7,4.5-0.7,6c1.2,1.8,4.6-0.1,8.7,0.7c5.3,1,6.3,5.4,14.8,14.1
	c3,3.2,6.2,6.1,9.7,8.7c9.5,6.8,15.3,6.2,16.8,10.4c1.7,4.6-2.3,10.5-6,13.4c-5.5,4.4-12.2,3.6-14,3.4c-1-0.1-1.9-0.3-2.9-0.6
	c27.2,15.2,60.7,13.5,86.2-4.5C606.1,206,604.3,205.6,603.7,204.7z"/>
<path id="Path_8" class="st3" d="M492.4,174.7c0.7-3.8,3.3-4.9,2.9-8.7c-0.5-4.6-4.5-4.9-5.3-10.4c-0.4-2.8,0.3-4.4-0.9-7.3
	c-0.8-1.8-1.6-2.4-2.5-3.9c-2.1-3.3-2.1-6.7-2.3-9.7c-0.1-3.3-0.5-7.4-1.1-12.4c-6.5,29.6,4,60.3,27.2,79.7
	c-2.1-2.2-4.5-4.8-7.2-7.9C496,186,491.3,180.6,492.4,174.7z"/>
<path id="Path_9" class="st4" d="M571.3,157.9c2.5-3,6-2.9,7.4-6.5c0.8-2.1-0.6-3.1,0.2-4.9c1-2.3,3.6-2.3,8-3.9
	c7.7-2.9,9.5-6.6,12.4-5.4c2.2,0.9,1.6,3,4.3,4.5c4.1,2.3,10.2-0.1,10.2-1.5c0-0.7-1.6-1-1.6-1.7c0.1-0.8,2.7-0.7,5.7-1.9
	c1.5-0.6,4.8-2,5.6-4.8c0.6-2.3-0.4-5.2-1.9-5.6c-1.6-0.4-2.9,2.5-4.4,2c-1.3-0.4-2.3-3.2-1.6-5.4c0.2-0.6,0.5-1.2,1-1.7
	c-0.9,0.3-1.8,0.6-2.7,0.8c0.1,0.6,0.1,1.3-0.2,1.9c-0.8,1.5-2.3,1.2-2.6,2.6c-0.5,2,2.5,3.8,1.9,4.7c-0.3,0.5-1.4,0.4-2.1,0.1
	c-2.6-0.9-2.4-3.8-4.8-5.6c-2.8-2.1-7-1.2-7.1-0.7c-0.1,0.6,6.5,1.3,6.9,3.9c0.1,0.5,0,1-0.3,1.3c-0.6,0.4-1.6-0.2-2.4-0.6
	c-2.8-1.5-5-2.7-6.9-2.5c-1.5,0.2-2.4,1.1-4.4,3c-1.4,1.1-2.4,2.7-2.8,4.4c-0.2,1.3,0.2,1.5,0,2.6c-0.8,2.9-3.5,4.9-6.5,4.8
	c-1.4-0.1-2.7-0.7-3.6-1.7c-1.2-1.4-1.5-3.4-0.8-5.2c1.4-2.7,5.6-1.7,6.5-4c0.6-1.6-1.3-2.6-0.8-5c0.3-1.4,1-1.7,2-3.5
	c-11.1-2.5-21.2-8.2-29-16.5c-1.5-0.1-2.9,0.4-4,1.4c-2,1.9-1,4.4-2.9,5.4c-1.7,0.8-4.4-0.2-5.6-1.9c-1.7-2.5-0.1-6.4,0.8-8.5
	c1.5-3.5,3-4.1,2.7-5.8c-0.5-2.5-4.4-3-4.1-5c0.1-0.8,0.6-1.5,1.9-2.5c-0.3-0.7-0.6-1.5-0.9-2.3c-1.7,0.2-3.3,0.7-4.8,1.4
	c-1.2,0.6-4.4,2.2-4.7,4.7c-0.2,2,1.5,2.5,1.7,4.7c0.3,4.1-5.7,8.8-8.1,7.7c-0.3-0.1-0.5-0.4-1.3-2.1c-1.5-3.4-1.6-4.6-2.4-6.3
	c-0.4-0.8-2.2-4.6-4.7-4.7c-3.2-0.1-5.2,5.9-5.4,6.4c-0.8,2.5-1.4,6.7,0.3,7.7c1.3,0.8,2.5-0.9,5-1c4.7-0.1,8.3,5.4,9.4,7.1
	c2.2,3.4,4.3,8.8,2.7,10.1c-0.7,0.6-2.7-0.1-6.7-1.3c-4.2-1.3-5.4-2-6.4-1.3c-1.3,0.9-0.1,3.1-1.3,5c-1.6,2.5-4.7,1-8.9,2.9
	c11,26.6,35.2,45.3,63.7,49.2c-0.7-0.9-1.3-2-1.9-3C568.6,169.3,567.8,162.1,571.3,157.9z"/>
<path id="Path_10" class="st4" d="M537.6,65.1c-12.5,9.3-15.6,13-14.8,14.8c0.9,2,6.1,1.7,6.4,3.7c0.2,1.6-3.1,2.9-2.7,4.4
	c0.3,0.9,2,1.2,2.7,1.3c1.3,0.2,3.9,0.1,4.7-1.3c0.8-1.5-1.3-2.8-1-5.4c0.4-2.2,1.9-4,4-4.7c1.8-0.5,3.4,0.2,5.6,1.7
	c-1-4.4-1.5-8.8-1.5-13.3c0-1.6,0.1-3.1,0.2-4.7l-0.4,0.1C540,63.1,538.9,64.3,537.6,65.1z"/>
<path id="Path_11" class="st5" d="M542.5,79.6c0.9,0.6,2,1.4,3.1,2.3c2.3,1.7,4,3.1,3.7,4c-0.3,0.9-2.1,0.6-4.6,0.9
	c0.3,0.8,0.6,1.5,0.9,2.3l0,0c4.8-3.5,13.6-4.8,16.8-1.2c0.6,0.7,1.1,1.8,2.4,2c1.8,0.4,3.3-1.3,3.9-0.8c0.4,0.4,0,1.5-0.5,2.8
	c-1.4,3.7-2.3,5.6-2.8,6.9c-1.6,4.2-0.3,4.8-1.5,6.1c-1.7,1.9-4.5,1.1-7.1,1.2c7.8,8.2,18,14,29.1,16.5c0.1-0.1,0.2-0.3,0.2-0.4
	c1.3-2.6,0.8-3.3,1.6-4.7c2-3.6,7-1.5,10-4.9c2.2-2.9,2.4-6.8,0.4-9.9c-1.3-1.9-3.7-3.1-4.4-2.6c-0.7,0.6,1.1,2.5,1,5.8
	c0,0.3-0.2,4.8-2.9,6c-2.3,1.1-5.7-0.7-7.3-2.9c-3.6-4.8-0.7-13.8,4.7-17.1c2.2-1.3,5.7-2.3,7.1-0.9s0.1,4.3,1.3,4.9
	c1.1,0.3,2.2-0.2,2.7-1.2c0.8-1.6-1.6-3.1-2.1-6.4c-0.5-2.8,1-3.5,0.9-5.8c-0.2-3.7-4-5.5-11.3-11.8c-5.2-4.5-7.8-6.7-7.5-8
	c0.2-0.6,0.8-1,1.8-1.4c-13.5-3.4-27.6-3.3-41,0.3c-0.1,1.5-0.2,3.1-0.2,4.7C540.9,70.8,541.5,75.3,542.5,79.6z"/>
<path id="Path_12" class="st5" d="M621,117c0-1.5-2.1-3-4.1-2.9c-1.7,0.2-3.1,1.3-3.7,2.9c-0.7,1.9,0.4,3.4,0.7,4.9
	c0.9-0.3,1.8-0.5,2.7-0.8C618.2,119.2,621,118.7,621,117z"/>
<path id="Path_13" class="st6" d="M641.9,153.3c-15.2,15.7-36.1,24.5-58,24.5c-3.7,0-7.4-0.3-11.1-0.8c1.4,1.8,3.2,3.3,5.3,4.2
	c1.2,0.5,3.8,1.3,15.9-1.6c6.9-1.6,11.1-3.1,11.9-1.8c0.5,0.9-1.1,1.9-1.3,4.3c-0.3,3.6,3.2,5.2,4.3,8.5c2,6.1-6.5,11.7-5.2,14.1
	c0.5,0.9,2.3,1.3,5.1,1.2C626.4,193.5,638.3,174.6,641.9,153.3z"/>
<path id="Path_14" class="st6" d="M585.9,122.6c-1,1.8-1.7,2.1-2,3.5c-0.5,2.5,1.4,3.4,0.8,5c-0.9,2.3-5.1,1.3-6.5,4
	c-0.7,1.7-0.4,3.7,0.8,5.2c0.9,1,2.2,1.6,3.6,1.7c3,0.1,5.7-1.9,6.5-4.8c0.2-1.1-0.2-1.2,0-2.6c0.4-1.7,1.4-3.2,2.8-4.4
	c1.9-1.9,2.9-2.9,4.4-3c1.9-0.2,4.1,1,6.9,2.5c0.7,0.4,1.8,1,2.4,0.6c0.3-0.4,0.5-0.9,0.3-1.3c-0.5-2.6-7-3.3-6.9-3.9
	c0.1-0.5,4.3-1.5,7.1,0.7c2.4,1.8,2.2,4.7,4.8,5.6c0.8,0.2,1.8,0.3,2.1-0.1c0.6-0.9-2.4-2.7-1.9-4.7c0.3-1.3,1.8-1.1,2.6-2.6
	c0.3-0.6,0.4-1.2,0.2-1.9C604.7,124.4,595.2,124.7,585.9,122.6L585.9,122.6z"/>
<linearGradient id="Path_15_1_" gradientUnits="userSpaceOnUse" x1="0.7886" y1="594.2346" x2="1.7886" y2="594.2346" gradientTransform="matrix(74.1373 0 0 -68.534 510.4608 40868.8086)">
	<stop  offset="6.300000e-02" style="stop-color:#DFEFFB"/>
	<stop  offset="0.899" style="stop-color:#FFFFFF"/>
</linearGradient>
<path id="Path_15" class="st7" d="M637.1,109.3c-5.9,5.3-12.9,9.4-20.5,11.9c-0.4,0.5-0.8,1.1-1,1.7c-0.7,2.2,0.3,5,1.6,5.4
	c1.5,0.4,2.7-2.4,4.4-2c1.5,0.4,2.6,3.3,1.9,5.6c-0.8,2.9-4.1,4.2-5.6,4.8c-3,1.2-5.6,1.1-5.7,1.9c-0.1,0.7,1.6,1,1.6,1.7
	c0,1.3-6.1,3.7-10.2,1.5c-2.7-1.5-2.1-3.6-4.3-4.5c-3-1.2-4.7,2.5-12.4,5.4c-4.4,1.6-6.9,1.7-8,3.9c-0.8,1.8,0.6,2.8-0.2,4.9
	c-1.4,3.6-4.9,3.5-7.4,6.5c-3.5,4.2-2.7,11.4-0.2,16.1c0.5,1.1,1.2,2.1,1.9,3c3.7,0.5,7.4,0.8,11.1,0.8c21.8,0,42.8-8.8,58-24.5
	C644.4,138.5,642.8,123.2,637.1,109.3L637.1,109.3z"/>
<linearGradient id="Path_16_1_" gradientUnits="userSpaceOnUse" x1="1.0296" y1="594.1832" x2="2.0296" y2="594.1832" gradientTransform="matrix(56.7793 0 0 -62.599 521.8467 37287.957)">
	<stop  offset="6.300000e-02" style="stop-color:#DFEFFB"/>
	<stop  offset="0.899" style="stop-color:#FFFFFF"/>
</linearGradient>
<path id="Path_16" class="st8" d="M580.3,62.8c-0.3,1.2,2.3,3.5,7.5,8c7.3,6.3,11.1,8,11.3,11.8c0.1,2.4-1.4,3-0.9,5.8
	c0.5,3.3,2.9,4.8,2.1,6.4c-0.5,1-1.6,1.5-2.7,1.2c-1.3-0.6,0-3.6-1.3-4.9s-4.9-0.4-7.1,0.9c-5.4,3.3-8.3,12.4-4.7,17.1
	c1.6,2.2,4.9,4,7.3,2.9c2.7-1.2,2.9-5.7,2.9-6c0.1-3.3-1.7-5.3-1-5.8c0.7-0.5,3.1,0.6,4.4,2.6c1.9,3.1,1.7,7-0.4,9.9
	c-3,3.4-8,1.3-10,4.9c-0.8,1.4-0.2,2.1-1.6,4.7c-0.1,0.2-0.2,0.3-0.2,0.4c9.2,2.1,18.8,1.8,27.9-0.6c-0.3-1.5-1.4-3-0.7-4.9
	c0.6-1.6,2-2.7,3.7-2.9c2-0.1,4.1,1.5,4.1,2.9c0,1.7-2.8,2.2-4.4,4.1c7.6-2.5,14.6-6.5,20.5-11.9c-9.7-23.8-30.1-41.5-55-47.9
	C581.1,61.8,580.5,62.2,580.3,62.8z"/>
<path id="Path_17" class="st6" d="M522.6,210.4c-4.3-2.4-8.4-5.3-12.2-8.4C514.7,206.4,518.3,209.2,522.6,210.4z"/>
<path id="Path_18" class="st6" d="M539.6,207.6c3.7-2.9,7.7-8.8,6-13.4c-1.5-4.3-7.3-3.7-16.8-10.4c-3.5-2.6-6.8-5.5-9.7-8.7
	c-8.5-8.7-9.5-13.1-14.8-14.1c-4.1-0.8-7.5,1.1-8.7-0.7c-1-1.5,1.2-3.1,0.7-6c-0.8-4.3-6.2-5.1-6-8.4c0.1-2.1,2.2-2.9,1.7-4.7
	c-0.4-1.4-1.7-1.5-2.7-2.7c-2.8-3.4,0.6-11.9,2.4-11.8c0.6,0.1,1.4,1.3,2,6.7c5,2.7,5.4,2.7,5.4,2.7c3.8,0.3,4.2-5.6,10.3-8.2l0,0
	c-5.8-14-7.5-29.4-5-44.4c-10.5,10.8-17.8,24.2-21,38.9c0.6,5,1,9.1,1.1,12.4c0.1,2.9,0.1,6.3,2.3,9.7c0.9,1.5,1.7,2,2.5,3.9
	c1.3,3,0.5,4.5,0.9,7.3c0.8,5.5,4.7,5.9,5.3,10.4c0.5,3.8-2.1,5-2.9,8.7c-1.2,5.9,3.5,11.3,10.8,19.4c2.7,3,5.1,5.7,7.2,7.9
	c3.8,3.2,7.9,6,12.2,8.4c0.9,0.3,1.9,0.5,2.9,0.6C527.4,211.2,534,212,539.6,207.6z"/>
<linearGradient id="Path_19_1_" gradientUnits="userSpaceOnUse" x1="1.4037" y1="594.2139" x2="2.4037" y2="594.2139" gradientTransform="matrix(41.6479 0 0 -66.019 444.615 39324.2148)">
	<stop  offset="6.300000e-02" style="stop-color:#DFEFFB"/>
	<stop  offset="0.899" style="stop-color:#FFFFFF"/>
</linearGradient>
<path id="Path_19" class="st9" d="M518.1,125c1.3-2,0-4.1,1.3-5c1-0.7,2.2,0,6.4,1.3c4,1.3,6,1.9,6.7,1.3c1.6-1.3-0.4-6.7-2.7-10.1
	c-1.1-1.7-4.7-7.2-9.4-7.1c-2.6,0.1-3.8,1.8-5,1c-1.8-1.1-1.2-5.3-0.3-7.7c0.2-0.5,2.2-6.5,5.4-6.4c2.5,0.1,4.3,3.9,4.7,4.7
	c0.8,1.6,0.9,2.9,2.4,6.3c0.8,1.8,1,2,1.3,2.1c2.3,1.1,8.3-3.6,8.1-7.7c-0.1-2.2-1.9-2.7-1.7-4.7c0.3-2.5,3.5-4.1,4.7-4.7
	c1.5-0.7,3.1-1.2,4.8-1.4c-0.9-2.4-1.7-4.8-2.2-7.3c-2.2-1.5-3.8-2.2-5.6-1.7c-2.1,0.7-3.7,2.5-4,4.7c-0.3,2.6,1.8,3.9,1,5.4
	c-0.8,1.4-3.4,1.5-4.7,1.3c-0.7-0.1-2.4-0.3-2.7-1.3c-0.4-1.4,2.9-2.7,2.7-4.4c-0.3-2-5.5-1.7-6.4-3.7c-0.8-1.8,2.3-5.5,14.8-14.8
	c1.3-0.8,2.4-2,3.2-3.4c-13.9,3.8-26.5,11.3-36.6,21.6c-2.5,15-0.8,30.4,5,44.4C513.4,126,516.5,127.4,518.1,125z"/>
<path id="Path_20" class="st6" d="M549.3,86c0.3-1-1.4-2.3-3.7-4c-1.2-0.9-2.2-1.7-3.1-2.3c0.6,2.5,1.3,4.9,2.2,7.3
	C547.2,86.6,549,86.9,549.3,86z"/>
<linearGradient id="Path_21_1_" gradientUnits="userSpaceOnUse" x1="4.393" y1="593.2289" x2="5.393" y2="593.2289" gradientTransform="matrix(13.3079 0 0 -23.9745 485.101 14323.5059)">
	<stop  offset="6.300000e-02" style="stop-color:#DFEFFB"/>
	<stop  offset="0.899" style="stop-color:#FFFFFF"/>
</linearGradient>
<path id="Path_21" class="st10" d="M543.7,91.7c-0.3,2,3.6,2.5,4.1,5c0.4,1.7-1.2,2.3-2.7,5.8c-0.9,2.1-2.6,5.9-0.8,8.5
	c1.2,1.8,3.9,2.8,5.6,1.9c2-0.9,1-3.5,2.9-5.4c1.1-1,2.5-1.5,4-1.4c-4.7-4.9-8.5-10.7-11.2-17C544.3,90.2,543.8,90.9,543.7,91.7z"/>
<linearGradient id="Path_22_1_" gradientUnits="userSpaceOnUse" x1="2.5108" y1="592.9614" x2="3.5108" y2="592.9614" gradientTransform="matrix(23.2844 0 0 -20.44 487.1799 12216.1631)">
	<stop  offset="6.300000e-02" style="stop-color:#DFEFFB"/>
	<stop  offset="0.899" style="stop-color:#FFFFFF"/>
</linearGradient>
<path id="Path_22" class="st11" d="M564,105c1.2-1.3-0.1-1.9,1.5-6.1c0.5-1.3,1.3-3.2,2.8-6.9c0.5-1.2,0.9-2.4,0.5-2.8
	c-0.6-0.5-2.1,1.2-3.9,0.8c-1.2-0.3-1.7-1.3-2.4-2c-3.2-3.6-12-2.4-16.8,1.2l0,0c2.7,6.3,6.5,12,11.2,17
	C559.5,106.1,562.3,106.8,564,105z"/>
<g id="Group_27" transform="translate(-73.133 -53.661)">
	<path id="Path_40" class="st12" d="M285.1,280.3h-42.9c-13.3,0-24.1,10.8-24.1,24c0,0,0,0,0,0l0,0c0,9.3,5.3,17.7,13.7,21.7
		c-2.4,5.9-4.8,13.2-1.9,13.4c3,0.3,12-6.1,18.5-11.1h36.6c13.3,0,24.1-10.8,24.1-24.1c0,0,0,0,0,0l0,0
		C309.1,291.1,298.3,280.3,285.1,280.3C285.1,280.3,285.1,280.3,285.1,280.3z"/>
	<circle id="Ellipse_1" class="st12" cx="239.5" cy="303.6" r="6.6"/>
	<circle id="Ellipse_2" class="st12" cx="263.1" cy="303.6" r="6.6"/>
	<circle id="Ellipse_3" class="st12" cx="285.6" cy="303.6" r="6.6"/>
</g>
<g id="Group_28" transform="translate(-73.133 -53.661)">
	<path id="Path_41" class="st6" d="M282.1,280.3h-42.9c-13.3,0-24.1,10.8-24.1,24c0,0,0,0,0,0l0,0c0,9.3,5.3,17.7,13.7,21.7
		c-2.4,5.9-4.8,13.2-1.9,13.4c3,0.3,12-6.1,18.5-11.1h36.6c13.3,0,24.1-10.8,24.1-24.1l0,0C306.2,291.1,295.4,280.3,282.1,280.3
		L282.1,280.3z"/>
	<circle id="Ellipse_4" class="st13" cx="236.6" cy="303.6" r="6.6"/>
	<circle id="Ellipse_5" class="st13" cx="260.2" cy="303.6" r="6.6"/>
	<circle id="Ellipse_6" class="st13" cx="282.7" cy="303.6" r="6.6"/>
</g>
<g id="Group_30" transform="translate(-73.133 -53.661)">
	<path id="Path_42" class="st12" d="M308.7,105.5L308.7,105.5c0,8.1,6.6,14.7,14.7,14.7h22.3c4,3.1,9.5,6.9,11.3,6.8
		c1.8-0.2,0.3-4.6-1.2-8.2c5.1-2.4,8.4-7.6,8.4-13.2l0,0c0-8.1-6.6-14.7-14.7-14.7h-26.1C315.3,90.9,308.7,97.4,308.7,105.5
		C308.7,105.5,308.7,105.5,308.7,105.5z"/>
	<circle id="Ellipse_7" class="st12" cx="351.1" cy="105.1" r="4"/>
	<circle id="Ellipse_8" class="st12" cx="336.8" cy="105.1" r="4"/>
	<circle id="Ellipse_9" class="st12" cx="323" cy="105.1" r="4"/>
</g>
<g id="Group_31" transform="translate(-73.133 -53.661)">
	<path id="Path_43" class="st14" d="M310.5,105.5L310.5,105.5c0,8.1,6.6,14.7,14.7,14.7h22.3c4,3.1,9.5,6.9,11.3,6.8
		c1.8-0.2,0.3-4.6-1.2-8.2c5.1-2.4,8.4-7.6,8.4-13.2l0,0c0-8.1-6.6-14.7-14.7-14.7h-26.1C317.1,90.9,310.5,97.4,310.5,105.5
		C310.5,105.5,310.5,105.5,310.5,105.5z"/>
	<circle id="Ellipse_10" class="st13" cx="352.9" cy="105.1" r="4"/>
	<circle id="Ellipse_11" class="st13" cx="338.5" cy="105.1" r="4"/>
	<circle id="Ellipse_12" class="st13" cx="324.8" cy="105.1" r="4"/>
</g>
<g id="Group_33" transform="translate(-73.133 -53.661)">
	<path id="Path_44" class="st12" d="M189.6,270.7L189.6,270.7c0,8.1,6.6,14.7,14.7,14.7l0,0h22.3c4,3.1,9.5,6.9,11.3,6.8
		c1.8-0.2,0.3-4.6-1.2-8.2c5.1-2.4,8.4-7.6,8.4-13.2l0,0c0-8.1-6.6-14.7-14.7-14.7c0,0,0,0,0,0h-26.1
		C196.2,256.1,189.6,262.6,189.6,270.7L189.6,270.7z"/>
	<circle id="Ellipse_13" class="st12" cx="232" cy="270.3" r="4"/>
	<circle id="Ellipse_14" class="st12" cx="217.7" cy="270.3" r="4"/>
	<circle id="Ellipse_15" class="st12" cx="203.9" cy="270.3" r="4"/>
</g>
<g id="Group_34" transform="translate(-73.133 -53.661)">
	<path id="Path_45" class="st14" d="M191.4,270.7L191.4,270.7c0,8.1,6.6,14.7,14.7,14.7l0,0h22.3c4,3.1,9.5,6.9,11.3,6.8
		c1.8-0.2,0.3-4.6-1.2-8.2c5.1-2.4,8.4-7.6,8.4-13.2l0,0c0-8.1-6.6-14.7-14.7-14.7l0,0h-26.1C198,256.1,191.4,262.6,191.4,270.7
		L191.4,270.7z"/>
	<circle id="Ellipse_16" class="st13" cx="233.8" cy="270.3" r="4"/>
	<circle id="Ellipse_17" class="st13" cx="219.4" cy="270.3" r="4"/>
	<circle id="Ellipse_18" class="st13" cx="205.7" cy="270.3" r="4"/>
</g>
<path id="Path_46" class="st15" d="M670.4,236.5h-1.2V127.2h-70.7V126h71.8L670.4,236.5z"/>
<path id="Path_47" class="st15" d="M262.2,190.9H160v-72.5h1.1v71.4h101V190.9z"/>
<path id="Path_48" class="st15" d="M124,385.9H58.4V216.5h59.9v1.1H59.6v167.1H124V385.9z"/>
<circle id="Ellipse_19" class="st15" cx="597.3" cy="124.5" r="9.4"/>
<circle id="Ellipse_20" class="st15" cx="127.4" cy="383.5" r="9.4"/>
<circle id="Ellipse_21" class="st15" cx="258.6" cy="188.7" r="9.4"/>
<path id="Path_49" class="st16" d="M711.7,235.9c0,0-0.1,0-0.1,0c-1.9,0-3.5,1.2-4.1,3c-0.1,0.4-0.2,0.7-0.2,1.1c0,0.1,0,0.2,0,0.2
	v30.1c0,2.4,2,4.3,4.4,4.2c2.3,0,4.2-1.9,4.2-4.2v-30.1C715.9,237.8,714.1,235.9,711.7,235.9z"/>
<rect id="Rectangle_3" x="578.2" y="246.4" class="st17" width="176" height="238.5"/>
<path id="Path_50" class="st17" d="M754.2,484.9h-176l176-238.5V484.9z"/>
<g id="Group_41" transform="translate(-73.133 -53.661)">
	<g id="Group_40">
		<path id="Path_51" class="st13" d="M666.4,310v203.9h114.5c0,9.2,7.5,16.7,16.7,16.7c9.2,0,16.7-7.5,16.7-16.7c0,0,0,0,0,0V310
			H666.4z M790.2,490.5c0,1.1-0.9,2-2,2h-54.9c-1.1,0-2-0.8-2-1.9c0-1.1,0.8-2,1.9-2c0,0,0.1,0,0.1,0h54.9
			C789.4,488.5,790.2,489.4,790.2,490.5z M808.4,316.9v-0.2c0,0,0,0.1,0,0.1S808.4,316.9,808.4,316.9z"/>
		<g id="Group_39">
			<path id="Path_52" class="st18" d="M700.7,351.3c5.3,0,10.1,3,12.4,7.8c7.3-6.9,7.6-18.3,0.7-25.6s-18.3-7.6-25.6-0.7
				c-7.3,6.9-7.6,18.3-0.7,25.6c0.3,0.3,0.5,0.5,0.8,0.8C690.5,354.3,695.3,351.3,700.7,351.3z"/>
			<path id="Path_53" class="st19" d="M713,359c-3.3-6.8-11.5-9.7-18.4-6.4c-2.8,1.4-5.1,3.6-6.4,6.5
				C695.2,365.6,706.1,365.6,713,359z"/>
		</g>
		<path id="Path_54" class="st20" d="M780.9,513.9H649.6c0,9.2,7.5,16.7,16.7,16.7h131.3C788.4,530.5,780.9,523.1,780.9,513.9z"/>
		<path id="Path_55" class="st20" d="M733.4,488.5c-1.1,0-2,0.8-2,1.9c0,1.1,0.8,2,1.9,2c0,0,0.1,0,0.1,0h54.9c1.1,0,2-0.8,2-1.9
			c0-1.1-0.8-2-1.9-2c0,0-0.1,0-0.1,0H733.4z"/>
		<path id="Path_56" class="st18" d="M699.1,373.7c-1.8,0-3.2,1-3.2,2.3s1.4,2.3,3.2,2.3h92.4c1.8,0,3.2-1,3.2-2.3s-1.4-2.3-3.2-2.3
			H699.1z"/>
		<path id="Path_57" class="st18" d="M699.1,479.3c-1.8,0-3.2,1-3.2,2.3s1.4,2.3,3.2,2.3h92.4c1.8,0,3.2-1,3.2-2.3s-1.4-2.3-3.2-2.3
			H699.1z"/>
		<path id="Path_58" class="st18" d="M697.3,399.5h93.8c1.1,0,2.1-0.4,2.9-1.1c0.4-0.3,0.7-0.9,0.7-1.4c0-1.2-1.4-2.3-3.2-2.3h0
			c-0.1,0-0.2,0-0.4,0h-93.8c-1.9,0-3.4,1.1-3.4,2.4S695.4,399.5,697.3,399.5z"/>
		<path id="Path_59" class="st18" d="M697.3,408.1h93.8c1.9,0,3.4-1.1,3.4-2.4s-1.5-2.4-3.4-2.4h-93.8c-1.9,0-3.4,1.1-3.4,2.4
			S695.4,408.1,697.3,408.1z"/>
		<path id="Path_60" class="st18" d="M697.3,419.1h93.8c0.9,0,1.8-0.3,2.6-0.8c0.6-0.3,1-1,1-1.7c0-1.1-1.1-2-2.6-2.2
			c-0.3-0.1-0.6-0.1-1-0.1h-93.8c-1.9,0-3.4,1.1-3.4,2.4S695.4,419.1,697.3,419.1z"/>
		<path id="Path_61" class="st18" d="M743,339.7h49.8c0.7,0,1.3-0.5,1.5-1.1c0.3-0.4,0.4-0.9,0.4-1.4c0-1.2-0.8-2.3-1.7-2.3h0
			c-0.1,0-0.1,0-0.2,0H743c-1,0-1.8,1.1-1.8,2.4S742,339.7,743,339.7z"/>
		<path id="Path_62" class="st18" d="M743,348.3h49.8c1,0,1.8-1.1,1.8-2.4s-0.8-2.4-1.8-2.4H743c-1,0-1.8,1.1-1.8,2.4
			S742,348.3,743,348.3z"/>
		<path id="Path_63" class="st18" d="M742.4,359.3h34.9c0.4,0,0.7-0.3,1-0.8c0.3-0.5,0.4-1.1,0.4-1.7c0-1.1-0.4-2-1-2.2
			c-0.1-0.1-0.2-0.1-0.4-0.1h-34.9c-0.7,0-1.3,1.1-1.3,2.4S741.7,359.3,742.4,359.3z"/>
		<path id="Path_64" class="st18" d="M697.3,430.9h93.8c1.2,0.1,2.4-0.5,3.1-1.5c0.3-0.3,0.4-0.7,0.5-1.1c0-1.2-1.4-2.3-3.2-2.3h-76
			c0,0,0,0,0,0.1h-10.4c0,0,0,0,0-0.1h-6c-0.2,0-0.5,0-0.7,0.1h-1.1c-1.9,0-3.4,1.1-3.4,2.4S695.4,430.9,697.3,430.9z"/>
		<path id="Path_65" class="st18" d="M697.3,464.1h1c0.3,0.1,0.5,0.1,0.8,0.1h36.3l-0.2-0.1h55.9c1.9,0,3.4-1.1,3.4-2.4
			s-1.5-2.4-3.4-2.4h-93.8c-1.9,0-3.4,1.1-3.4,2.4S695.4,464.1,697.3,464.1z"/>
		<path id="Path_66" class="st18" d="M697.3,473.3h93.8c1.9,0,3.4-1.1,3.4-2.4s-1.5-2.4-3.4-2.4h-93.8c-1.9,0-3.4,1.1-3.4,2.4
			S695.4,473.3,697.3,473.3z"/>
		<circle id="Ellipse_22" class="st19" cx="700.7" cy="340.1" r="7.8"/>
	</g>
	<path id="Path_67" class="st13" d="M740.2,278.2c0.7,0,1.2-0.5,1.2-1.2c0-0.7-0.5-1.2-1.2-1.2s-1.2,0.5-1.2,1.2c0,0,0,0,0,0
		C739,277.7,739.6,278.2,740.2,278.2z"/>
	<path id="Path_68" class="st21" d="M854.9,495.6C854.9,495.6,854.9,495.6,854.9,495.6C854.9,495.5,854.9,495.5,854.9,495.6
		C854.9,495.5,854.9,495.5,854.9,495.6z"/>
</g>
<rect id="Rectangle_4" x="703" y="246.3" class="st20" width="6.3" height="19.4"/>
<g id="Group_42" transform="translate(-73.133 -53.661)">
	<path id="Path_69" class="st16" d="M762.8,274.7h-46.9v14.8h46.9V274.7z M739.8,287.4c-2.3,0.2-4.4-1.5-4.6-3.9s1.5-4.4,3.9-4.6
		c2.3-0.2,4.4,1.5,4.6,3.9c0,0.2,0,0.5,0,0.7C743.5,285.6,741.9,287.3,739.8,287.4z"/>
	<path id="Path_70" class="st22" d="M762.8,289.5h-63.6c-3,0-5.4,2.4-5.4,5.4l0,0v22.7c0,0.1,0,0.2,0,0.2c0.1,0.9,0.9,1.6,1.9,1.6
		h86.8l0,0c0,0-0.1,0-0.1,0c-1,0-1.9-0.9-1.9-1.9c0,0,0,0,0,0v-23.6c0-0.1,0-0.2,0-0.2c0-0.4,0.1-0.7,0.2-1.1c0.6-1.8,2.2-3,4.1-3
		c0,0,0.1,0,0.1,0v0H762.8z"/>
	<path id="Path_71" class="st23" d="M693.8,314.9v2.6c0,0.1,0,0.1,0,0.2L693.8,314.9L693.8,314.9z"/>
	<path id="Path_72" class="st23" d="M695.7,319.4c0,0,0.1,0,0.1,0s0.1,0,0.1,0h-0.6C695.5,319.4,695.6,319.4,695.7,319.4z"/>
</g>
<circle id="Ellipse_23" class="st18" cx="605.1" cy="343.7" r="2.9"/>
<circle id="Ellipse_24" class="st18" cx="605.1" cy="407.3" r="2.9"/>
<g id="Group_44" transform="translate(-73.133 -53.661)">
	<path id="Path_73" class="st12" d="M203,173.6L203,173.6c0,16.8,13.6,30.5,30.5,30.5h46.3c8.3,6.4,19.7,14.4,23.5,14.1
		c3.7-0.3,0.7-9.5-2.4-17c10.6-5,17.4-15.8,17.4-27.5l0,0c0-16.8-13.6-30.5-30.5-30.5h-54.3C216.6,143.1,203,156.7,203,173.6z"/>
	<circle id="Ellipse_25" class="st12" cx="291.1" cy="172.6" r="8.4"/>
	<circle id="Ellipse_26" class="st12" cx="261.2" cy="172.6" r="8.4"/>
	<circle id="Ellipse_27" class="st12" cx="232.7" cy="172.6" r="8.4"/>
</g>
<g id="Group_45" transform="translate(-73.133 -53.661)">
	<path id="Path_74" class="st14" d="M206.7,173.6L206.7,173.6c0,16.8,13.6,30.5,30.5,30.5h46.3c8.3,6.4,19.7,14.4,23.5,14.1
		c3.7-0.3,0.7-9.5-2.4-17c10.6-5,17.4-15.8,17.4-27.5l0,0c0-16.8-13.6-30.5-30.5-30.5h-54.3C220.3,143.1,206.7,156.7,206.7,173.6z"
		/>
	<circle id="Ellipse_28" class="st13" cx="294.8" cy="172.6" r="8.4"/>
	<circle id="Ellipse_29" class="st13" cx="265" cy="172.6" r="8.4"/>
	<circle id="Ellipse_30" class="st13" cx="236.5" cy="172.6" r="8.4"/>
</g>
<g id="Group_47" transform="translate(-73.133 -53.661)">
	<path id="Path_75" class="st12" d="M233.8,191.4h-25.5c-7.9,0-14.3,6.4-14.3,14.3l0,0l0,0c0,5.5,3.2,10.5,8.2,12.9
		c-1.5,3.5-2.9,7.8-1.1,8c1.8,0.2,7.1-3.6,11-6.6h21.7c7.9,0,14.3-6.4,14.3-14.3l0,0l0,0C248.1,197.8,241.7,191.4,233.8,191.4z"/>
	<circle id="Ellipse_31" class="st12" cx="206.7" cy="205.2" r="3.9"/>
	<circle id="Ellipse_32" class="st12" cx="220.7" cy="205.2" r="3.9"/>
	<circle id="Ellipse_33" class="st12" cx="234.1" cy="205.2" r="3.9"/>
</g>
<g id="Group_48" transform="translate(-73.133 -53.661)">
	<path id="Path_76" class="st6" d="M232,191.4h-25.5c-7.9,0-14.3,6.4-14.3,14.3l0,0l0,0c0,5.5,3.2,10.5,8.2,12.9
		c-1.5,3.5-2.9,7.8-1.1,8c1.8,0.2,7.1-3.6,11-6.6H232c7.9,0,14.3-6.4,14.3-14.3l0,0l0,0C246.3,197.8,239.9,191.4,232,191.4z"/>
	<circle id="Ellipse_34" class="st13" cx="205" cy="205.2" r="3.9"/>
	<circle id="Ellipse_35" class="st13" cx="219" cy="205.2" r="3.9"/>
	<circle id="Ellipse_36" class="st13" cx="232.4" cy="205.2" r="3.9"/>
</g>
<path id="Path_77" class="st15" d="M468.7,255.1h-70.8V142h1.1v112h69.7V255.1z"/>
<g id="Group_49" transform="translate(-73.133 -53.661)">
	<path id="Path_23" class="st24" d="M289.6,374.9c-27.1-27.1-71.1-27.1-98.2,0s-27.1,71.1,0,98.2s71.1,27.1,98.2,0
		c13-13,20.3-30.7,20.3-49.1C310,405.5,302.7,387.9,289.6,374.9z M240.5,419.4c2.5,0,4.6,2,4.6,4.6c0,2.5-2,4.6-4.6,4.6
		c-2.5,0-4.6-2-4.6-4.6c0,0,0,0,0,0C235.9,421.4,238,419.4,240.5,419.4z"/>
	<g id="Group_11">
		<g id="Group_5">
			<path id="Path_24" class="st25" d="M240.5,479.7c-25.2,0-45.6-20.4-45.6-45.6c0-25.2,20.4-45.6,45.6-45.6
				c25.2,0,45.6,20.4,45.6,45.6l0,0C286.1,459.2,265.7,479.7,240.5,479.7z M240.5,401.4c-18,0-32.6,14.6-32.6,32.6
				s14.6,32.6,32.6,32.6c18,0,32.6-14.6,32.6-32.6c0,0,0,0,0,0C273.1,416.1,258.5,401.5,240.5,401.4z"/>
		</g>
		<g id="Group_6">
			<path id="Path_25" class="st13" d="M240.5,466.8c-18.1,0-32.7-14.7-32.7-32.7s14.7-32.7,32.7-32.7s32.7,14.7,32.7,32.7l0,0
				C273.2,452.1,258.6,466.8,240.5,466.8z M240.5,414.3c-10.9,0-19.7,8.8-19.7,19.7c0,10.9,8.8,19.7,19.7,19.7s19.7-8.8,19.7-19.7
				l0,0C260.2,423.2,251.4,414.3,240.5,414.3z"/>
		</g>
		<g id="Group_7">
			<path id="Path_26" class="st25" d="M240.5,454.2c-11.1,0-20.1-9-20.1-20.1c0-11.1,9-20.1,20.1-20.1c11.1,0,20.1,9,20.1,20.1
				C260.6,445.2,251.6,454.1,240.5,454.2z M240.5,427c-3.9,0-7.1,3.2-7.1,7.1c0,3.9,3.2,7.1,7.1,7.1c3.9,0,7.1-3.2,7.1-7.1
				C247.6,430.1,244.4,427,240.5,427z"/>
		</g>
		<g id="Group_8">
			<path id="Path_27" class="st13" d="M240.5,442.5c-4.7,0-8.4-3.8-8.4-8.4s3.8-8.4,8.4-8.4c4.7,0,8.4,3.8,8.4,8.4
				C248.9,438.7,245.2,442.5,240.5,442.5z M240.5,429.5c-2.5,0-4.6,2-4.6,4.6c0,2.5,2,4.6,4.6,4.6c2.5,0,4.6-2,4.6-4.6l0,0
				C245.1,431.5,243,429.5,240.5,429.5L240.5,429.5z"/>
		</g>
		<g id="Group_9">
			<path id="Path_28" class="st13" d="M240.5,491.8c-31.9,0-57.7-25.9-57.7-57.7s25.9-57.7,57.7-57.7c31.9,0,57.7,25.9,57.7,57.7
				C298.2,465.9,272.4,491.8,240.5,491.8z M240.5,389.3c-24.7,0-44.7,20-44.7,44.7s20,44.7,44.7,44.7c24.7,0,44.7-20,44.7-44.7l0,0
				C285.2,409.4,265.2,389.3,240.5,389.3L240.5,389.3z"/>
		</g>
		<g id="Group_10">
			<path id="Path_29" class="st25" d="M240.5,503.5c-38.4,0-69.5-31.1-69.5-69.5c0-38.4,31.1-69.5,69.5-69.5
				c38.4,0,69.5,31.1,69.5,69.5c0,18.4-7.3,36.1-20.3,49.1C276.6,496.3,258.9,503.6,240.5,503.5z M240.5,377.6
				c-31.2,0-56.5,25.3-56.5,56.5s25.3,56.5,56.5,56.5s56.5-25.3,56.5-56.5l0,0C296.9,402.9,271.7,377.6,240.5,377.6z"/>
		</g>
	</g>
	<g id="Group_18">
		<g id="Group_12">
			<path id="Path_30" class="st26" d="M281.5,459.4h-6.8c-0.7,0-1.2,0.6-1.2,1.2s0.6,1.2,1.2,1.2l12.5,6.5c0.7,0,6.4,0,6.4-0.6
				c0-0.3-10.9-7.7-11.1-7.9C282.1,459.6,281.8,459.4,281.5,459.4z"/>
		</g>
		<g id="Group_13">
			<path id="Path_31" class="st26" d="M292.3,467.1h-6.8c-0.7,0-1.2,0.6-1.2,1.2s0.6,1.2,1.2,1.2l0,0h6.8c0.7,0,1.2-0.6,1.2-1.2
				S293,467.1,292.3,467.1z"/>
		</g>
		<g id="Group_16">
			<g id="Group_14">
				<path id="Path_32" class="st26" d="M274.7,459.5c-0.7,0-1.2,0.6-1.2,1.2c0,0.1,0,0.3,0.1,0.4l2.1,6.5c0.1,0.2,0.2,0.5,0.4,0.6
					c0.3,0.2,10.6,8.3,11,8.1c0.7-0.2-1-7.3-1.2-8l-9.9-8C275.7,459.8,275.2,459.5,274.7,459.5z"/>
			</g>
			<g id="Group_15">
				<path id="Path_33" class="st26" d="M285.3,467.4c-0.7,0-1.2,0.6-1.2,1.2c0,0.1,0,0.3,0.1,0.4l2.1,6.5c0.2,0.7,0.9,1,1.6,0.8
					c0.7-0.2,1-0.9,0.8-1.6l-2.1-6.5C286.3,467.8,285.8,467.4,285.3,467.4z"/>
			</g>
		</g>
		<g id="Group_17">
			<path id="Path_34" class="st26" d="M240.7,433.9c-0.7,0-1.2,0.6-1.3,1.2c0,0.4,0.2,0.8,0.5,1l47.1,35.2c0.6,0.4,1.3,0.3,1.8-0.2
				s0.3-1.3-0.2-1.8l0,0l-47.1-35.2C241.3,434,241,433.9,240.7,433.9z"/>
		</g>
	</g>
	<g id="Group_25">
		<g id="Group_19">
			<path id="Path_35" class="st27" d="M286,407.3h-7.6c-0.8,0-1.4-0.6-1.4-1.4c0-0.8,14.3-9.3,15-9.3l7,1.6c0.8,0-11.9,8.4-12.1,8.6
				C286.7,407.1,286.4,407.3,286,407.3z"/>
		</g>
		<g id="Group_20">
			<path id="Path_36" class="st27" d="M298,398.9h-7.5c-0.8,0-1.4-0.6-1.4-1.4c0-0.8,0.6-1.4,1.4-1.4h7.6c0.8,0,1.4,0.6,1.4,1.4
				C299.3,398.2,298.7,398.9,298,398.9L298,398.9z"/>
		</g>
		<g id="Group_23">
			<g id="Group_21">
				<path id="Path_37" class="st27" d="M278.4,407.2c-0.8,0-1.4-0.6-1.4-1.4c0-0.1,0-0.3,0.1-0.4l2.4-7.2c0.1-0.4,0.5-0.7,0.9-0.9
					c0.3-0.1,12.2-9.5,12-8.8l-1,7.5C291.1,396.7,279,407.2,278.4,407.2z"/>
			</g>
			<g id="Group_22">
				<path id="Path_38" class="st27" d="M290.2,398.5c-0.8,0-1.4-0.6-1.4-1.4c0-0.1,0-0.3,0.1-0.4l2.4-7.2c0.2-0.7,1-1.1,1.7-0.9
					s1.1,1,0.9,1.7c0,0,0,0,0,0.1l-2.4,7.2C291.3,398.1,290.8,398.5,290.2,398.5z"/>
			</g>
		</g>
		<g id="Group_24">
			<path id="Path_39" class="st28" d="M240.9,435.5c-0.8,0-1.4-0.6-1.4-1.4c0-0.4,0.2-0.8,0.6-1.1l52.2-39c0.6-0.4,1.5-0.3,1.9,0.3
				c0.4,0.6,0.3,1.4-0.3,1.9l-52.1,39C241.5,435.5,241.2,435.5,240.9,435.5z"/>
		</g>
	</g>
</g>
<g>
	<path class="st25" d="M427.5,557.3c-1.4-0.8-3-0.4-4.5-0.6c-16.7-1.9-27.9-11-34.9-26c-3.2-7.1-4.3-14.6-5.4-22.2
		c-1.5-11.1-2.3-22.2-1.9-33.4c0.5-13.1,1-26.2,3.9-39.1c0.1-0.6,0.6-1.6-0.4-1.9c-1.2-0.3-1.1,0.9-1.2,1.6
		c-2.4,10.7-3.1,21.6-3.7,32.5c-1,16.7,0.2,33.2,3.2,49.7c0.2,1,0.1,1.6-1,2.2c-10.3,5.7-21,10.2-32.7,12.2
		c-9.3,1.5-18.5,1.4-26.9-3.5c-11-6.4-17.1-16.2-18.1-28.8c-0.9-10.8,2.1-21,5.8-31.1c4.9-13.4,12.4-25.4,20.8-36.8
		c0.5-0.6,0.7-1,1.6-0.4c0.6,0.4,1.8,0.1,2.7-0.1c6.7-1.1,11.6-4.8,15.1-10.4c3-4.8,4.7-10.1,5.3-15.7c10.7,0.1,21.5,0.3,32.2,0.4
		c19.5,0.3,39.1,0.6,58.6,0.8c0.5,0,1.1,0.1,1.6,0.1c0.6,3.5,1.2,7.1,1.8,10.6c0,0.6,0.1,1.2,0.1,1.8c0.9,9.7-0.2,19.4-1.1,29.1
		c0,0.9,0,1.7-0.1,2.6c-0.8,6-0.4,12,0.4,18c0.9,6.7,2.6,13.1,5.3,19.2c0.2,0.4,0.3,0.8,0.5,1.2c0.2,0.4,0.6,0.6,1,0.5
		c0.5-0.2,0.6-0.6,0.4-1.1c-0.3-0.8-0.6-1.6-0.9-2.4c-1.5-3.8-2.8-7.6-3.7-11.6c-0.2-1.1,0-1.6,0.9-2.2c6.1-3.7,12.5-6.9,18.7-10.5
		c4.3-2.3,8.6-4.5,13-6.8c1.1-0.5,2.2-1.1,3.3-1.6c0.4-0.2,0.8-0.3,1.1-0.5c8-4,16-8,24-12.1c1.2-0.6,1.8-0.5,2.2,0.8
		c0.4,1.3,1.1,2.6,1.6,3.9c0.3,0.5,0.5,1,0.8,1.5c1.9,5,3.9,9.9,5.7,14.9c1.9,5.1,3.6,10.3,5.4,15.4c0.2,0.7,0.5,1.4,0.7,2.1
		c0.7,2.4,1.3,4.8,2,7.2c1.9,7,3.4,14,3.4,21.3c0,0.7,0.1,1.4-0.7,1.9c-7.7,5.2-15.1,11-23.1,15.9c-14.8,9.2-30.6,16.5-46.7,23.1
		c-9.5,3.9-19.3,6.8-29.6,7.8c-1.1,0.1-2.4-0.2-3.5,0.5C429.7,557.3,428.6,557.3,427.5,557.3z M425.8,427.5c1.7,4.1,4.1,7.7,8.2,9.9
		c1.2,0.6,0.7,1.6,0.8,2.5c0.1,0.6-0.2,1.5,0.8,1.5c0.9,0,0.6-0.8,0.7-1.4c0.1-0.5-0.3-1.2,0.6-1.3c0.6-0.1,1.2-0.1,1.1-0.9
		c-0.1-0.7-0.7-0.7-1.2-0.9c-2.3-0.8-4.3-2.2-5.9-4.1c-2.4-2.8-3.8-6-4.8-9.5c-1.3-4.8-1.8-9.8-1.8-14.8c0-0.6,0.3-1.5-0.6-1.6
		c-1.1-0.1-0.8,1-0.9,1.6c-0.1,1,0,1.9,0,2.9C422.9,417,423.7,422.4,425.8,427.5z M437.1,473.9c0.1,0.6,0.2,1.3,1.1,1.1
		c0.7-0.1,0.6-0.8,0.5-1.3c-0.2-1.5-0.5-3-0.7-4.5c-0.1-0.6-0.2-1.2-0.9-1.2c-0.8,0-0.8,0.7-0.7,1.4
		C436.7,470.9,436.9,472.4,437.1,473.9z M436.5,446.6c0-0.5-0.3-0.9-0.9-0.9c-0.5,0.1-0.7,0.4-0.7,0.9c0.1,1.8,0.2,3.5,0.2,5.3
		c0,0.5,0.2,0.8,0.8,0.8c0.5,0,0.7-0.4,0.7-0.8c0-0.8,0-1.7,0-2.5c0,0-0.1,0-0.1,0C436.5,448.4,436.5,447.5,436.5,446.6z M435.9,463
		c0,0.5,0.2,0.9,0.7,0.9c0.7,0,0.8-0.5,0.7-1c-0.1-1.6-0.2-3.3-0.3-4.9c0-0.6-0.1-1.2-0.8-1.1c-0.7,0.1-0.7,0.7-0.7,1.3
		c0,0.5,0.1,1,0.1,1.5c0,0,0,0-0.1,0C435.6,460.7,435.7,461.9,435.9,463z M360.4,515.7c0.5-0.1,0.9-0.4,0.8-1
		c-0.1-0.6-0.6-0.6-1.1-0.5c-1.5,0.4-2.9,0.8-4.4,1.1c-0.5,0.1-0.9,0.4-0.8,1c0.1,0.7,0.6,0.6,1.5,0.5
		C357.5,516.5,359,516.1,360.4,515.7z M487.3,464.1c1.5-0.8,3-1.5,4.5-2.3c0.4-0.2,0.7-0.5,0.5-1c-0.1-0.5-0.5-0.6-0.8-0.5
		c-1.7,0.8-3.5,1.7-5.2,2.6c-0.2,0.1-0.2,0.4-0.3,0.5C486.3,464.2,486.7,464.4,487.3,464.1z M476.6,467.8c-0.3,0.2-0.4,0.6-0.2,1
		c0.2,0.4,0.6,0.4,1,0.3c1.6-0.8,3.2-1.6,4.9-2.4c0.4-0.2,0.5-0.6,0.4-0.9c-0.1-0.4-0.4-0.6-1-0.5C480,466,478.2,466.9,476.6,467.8z
		 M466.7,472.8c-0.3,0.2-0.4,0.6-0.2,1c0.2,0.4,0.6,0.5,0.9,0.3c1.6-0.8,3.3-1.6,4.9-2.4c0.4-0.2,0.5-0.5,0.4-0.9
		c-0.1-0.4-0.4-0.5-1.1-0.5C470.2,471,468.4,471.8,466.7,472.8z M365.2,512.7c-0.5,0.2-0.6,0.6-0.4,1c0.2,0.4,0.5,0.5,0.9,0.4
		c1.6-0.5,3.2-1.1,4.8-1.7c0.4-0.1,0.5-0.5,0.4-0.9c-0.1-0.4-0.4-0.6-1-0.6C368.5,511.5,366.9,512.1,365.2,512.7z M496.8,459.2
		c1.8-0.8,3.5-1.7,5.2-2.5c0.4-0.2,0.4-0.6,0.2-1c-0.2-0.3-0.5-0.5-0.7-0.4c-1.7,0.8-3.5,1.7-5.2,2.6c-0.2,0.1-0.2,0.4-0.3,0.5
		C496,459.1,496.4,459.4,496.8,459.2z M509.5,452.5c0.1-0.5-0.4-0.9-0.8-0.7c-1,0.5-2.4,0.6-2.9,1.9c-0.1,0.4,0.3,0.8,0.9,0.7
		C507.6,453.7,509,453.8,509.5,452.5z M377,508.4c-0.9,0.4-2,0.4-2.6,1.4c-0.2,0.3,0,0.8,0.4,0.8c1.1,0.2,2.1-0.5,3-0.9
		c0.3-0.1,0.5-0.5,0.3-0.9c-0.2-0.4-0.5-0.4-0.9-0.4C377.1,508.4,377.1,508.4,377,508.4z M459.9,477.7c1.1-0.2,2.2-0.7,3-1.5
		c0.3-0.3,0.1-0.7-0.2-0.9c-0.6-0.4-1,0-1.5,0.3c-0.7,0.4-1.7,0.5-1.9,1.3C459.2,477.3,459.5,477.7,459.9,477.7z M440,482.9
		c0.5,0.1,0.8-0.4,0.7-0.8c-0.4-1-0.1-2.5-1.5-3c-0.5-0.1-0.7,0.3-0.7,1C439,481,438.6,482.5,440,482.9z M347.4,517.1
		c0,1.3,1.4,0.7,2.2,0.7c0.6,0,1.7,0.3,1.6-0.9c-0.1-1.1-1.1-0.5-1.8-0.6C348.8,516.7,347.4,515.8,347.4,517.1z"/>
	<path class="st29" d="M273.6,221.8c3.8,6.5,7.7,13.1,11,19.9c4.1,8.4,6.6,17.4,10.1,26c6.6,16.2,15.3,31.1,27.9,43.5
		c3.9,3.8,8.1,7.2,12.6,10.1c0.5-0.6,0.3-1.3,0.3-2c-6.2-3.9-11.6-8.8-16.4-14.3c-11.1-12.6-19-27.2-24.7-43
		c-4.9-13.4-10.4-26.5-17.9-38.7c-0.5-0.9-0.9-1.9-1.2-2.8c-0.2-0.7-0.6-1.5,0.2-2c0.8-0.5,1.5,0.1,2,0.7c1.1,1.2,2.1,2.3,3.2,3.5
		c0.3,0.3,0.6,0.8,1.2,0.4c0.6-0.5,0.1-0.9-0.2-1.2c-1.4-1.8-2.8-3.5-4.1-5.3c-0.8-1.1-1.5-2.2-1.7-3.6c-0.1-0.6,0-1.2,0.6-1.6
		c0.6-0.4,1.1-0.1,1.5,0.2c1.2,0.7,2.3,1.6,3.1,2.8c1.3,1.9,2.7,3.9,4.1,5.8c0.3,0.4,0.6,0.9,1.2,0.5c0.6-0.4,0.3-0.8,0.1-1.3
		c-0.5-0.8-1-1.5-1.5-2.3c-1.7-2.5-3.5-4.8-4.6-7.6c-0.4-1.1-1.1-2.6,0-3.4c1.3-0.9,2.2,0.6,3,1.4c2.4,2.5,4.2,5.5,6.3,8.3
		c0.5,0.7,0.8,2.3,1.9,1.6c1.1-0.7-0.4-1.6-0.7-2.4c-1.2-2.4-3.3-4.4-3.8-7.2c-0.2-1.3-0.8-3,0.6-3.8c1.6-0.9,2.4,0.8,3.4,1.7
		c0.3,0.3,0.6,0.7,0.9,1.1c2.2,3,3.9,6.3,5.6,9.6c1,1.8,0.9,3.4-0.3,5.1c-1.4,1.9-2.3,4.2-2,6.6c0.1,1,0.1,2.1,1.3,2.7
		c0.3-0.8,0-1.5-0.1-2.2c-0.2-2.2,0-4.4,1.8-5.9c1.8-1.5,2.1-3.3,1.8-5.4c-0.2-2,0.1-4,1-5.9c0.3-0.6,0.5-1.4,1.3-1.4
		c0.8,0,0.7,0.9,0.9,1.4c2.2,5.4,4.3,10.8,6.5,16.2c4.8,11.9,9.6,23.7,15.8,34.9c5.1,9.4,11.8,17.5,21.1,23.1c0.5-0.4,0.7-1,0.8-1.6
		c-8.8-5.5-15.3-13.2-20.2-22.2c-8.1-14.8-14-30.7-20.4-46.3c-0.8-2-1.6-3.9-2.5-5.9c-0.9-1.9-2.7-2.2-4-0.6c-1.1,1.3-1.5,2.9-2,4.7
		c-1.2-2-2.2-3.8-3.3-5.7c-1-1.6-2.1-3.1-3.4-4.5c-1.3-1.2-2.7-2.3-4.5-1.6c-1.8,0.7-2.1,2.4-2.1,4.3c-1.7-1.4-3.4-3.3-5.7-1.8
		c-1.9,1.2-1.2,3.2-0.9,5c-3.8-0.3-5.3,1.9-3.8,5.5c0.7,1.7,0.7,1.7-1.1,2.6C273.6,218.9,273.6,220.4,273.6,221.8z"/>
	<path class="st22" d="M347.8,283.9c-0.2,0.6-0.3,1.2-0.8,1.6c-0.1,0.3-0.2,0.7-0.4,1c-2.7,5.6-5,11.4-6.9,17.4
		c-1.6,5.1-2.7,10.3-4,15.4c0,0.7,0.1,1.4-0.3,2c-0.8,2.7,0.8,4.4,2.7,6c4.2,3.5,9.3,5.2,14.4,6.7c1.1,0.3,1.1-0.4,1.2-1
		c0.7-3.1,1.4-6.2,2.1-9.2c0.2-0.7,0.1-1.9,1.3-1.6c1.1,0.3,0.6,1.3,0.4,2c-5.6,26.5-10.8,53.1-17.3,79.4c-0.3,1.2-0.1,1.6,1.2,1.6
		c3.3,0,6.7,0.1,10,0.2c0.7-0.1,1.5-0.1,2.2,0.1c0.5,0,1,0,1.5,0c10.7,0.1,21.5,0.3,32.2,0.4c19.5,0.3,39.1,0.6,58.6,0.8
		c0.5,0,1.1,0.1,1.6,0.1c0.6-0.6,0.3-1.4,0.3-2.1c-0.6-22.7-1.2-45.4-1.8-68.1c-0.1-3.6-0.5-7.3-0.7-10.9c0-0.7-0.3-1.7,0.8-1.7
		c1,0,1,0.9,1,1.6c0.1,2.2,0.3,4.5,0.4,6.7c0,0.9,0.3,1.2,1.2,0.9c6.5-1.8,13-3.6,18.8-7c1.2-0.7,1.6-1.3,0.7-2.6
		c-0.5-0.7-0.8-1.5-1.2-2.2c-0.5-0.4-0.8-0.9-0.9-1.6c-3.8-6.5-7.2-13.2-10.4-20c-1.7-3.6-3.5-7.2-4.6-11.1
		c-0.4-0.5-0.6-1.1-0.6-1.8c-0.3-0.9-0.7-1.2-1.7-1c-8.4,1.5-16.5,0.7-24.4-2.3c-3.3-1.2-6.7-1.9-10.2-2.5c0.2,2.3,0.6,4.4-1.2,6.5
		c-5.3,6.2-15.4,6.5-20.6,4.1c-2.3-1.1-3.3-3.2-2.8-5.7c0.3-1.5,0.5-3,0.3-4.5c-9.3,2.1-18.8,3-28.4,2.6c-4-0.1-8-0.3-12-0.7
		C348.9,283.5,348.2,283.3,347.8,283.9z"/>
	<path class="st30" d="M390,279.4c0.3-1.7-0.4-2.5-2-3.2c-4.2-1.9-7.2-5.1-9-9.3c-2.3-5.2-2.8-10.8-2.4-16.4c0.1-1.4,0-2.4-0.9-3.5
		c-1-1.2-1.4-2.8-1.4-4.4c-0.1-2.9,0.6-5.5,1.8-8.1c0.4-0.9,0.4-1.6-0.2-2.5c-2.3-3.4-2.1-6.7,0.5-9.9c1.6-2,3.7-3.5,5.9-4.7
		c8.4-4.5,17.5-6.4,27-6.1c5.6,0.2,10.7,2.2,14.7,6.3c2.3,2.4,3.7,5.3,2.9,8.7c-0.2,0.8,0.2,1,0.8,1.4c3.5,1.8,5.6,4.7,6.8,8.4
		c1.8,5.5,1.3,10.9-0.3,16.3c-1.5,5-3.7,10-8.5,12.5c-3.4,1.7-5.6,4.5-8.4,6.6c-3.5,2.6-4.2,5.4-3.2,9.2c0,0.2,0.1,0.4,0.1,0.5
		c0.2,2.3,0.6,4.4-1.2,6.5c-5.3,6.2-15.4,6.5-20.6,4.1c-2.3-1.1-3.3-3.2-2.8-5.7c0.3-1.5,0.5-3,0.3-4.5
		C389.9,280.9,389.8,280.2,390,279.4z M379.8,264.3c2.6,7.6,8.3,11.5,16.1,12.6c4.1,0.6,8.2,0.1,12.2-1.4c8.4-3,13-9.2,14.7-17.7
		c0.3-1.3,0.6-1.9,2.1-2.1c4.2-0.4,7-6.5,4.8-10c-1.6-2.5-4.9-2.5-6.7,0c-2.1,2.8-2.4,2.9-5.2,0.8c-2.8-2.2-5.3-4.7-6.3-8.2
		c-0.3-1.2-1.1-0.7-1.7-0.6c-7.5,1.5-14.9,1.7-22.4,0.2c-1.7-0.3-3.3-0.7-4.9-1.3c-1.1-0.4-1.6-0.2-1.9,1
		c-1.4,5.2-2.3,10.4-2.3,16.3C378.2,257,378.5,260.7,379.8,264.3z M398,278.7c-1.7-0.1-3.5-0.4-5.2-0.7c-0.8-0.1-1,0-1.1,0.8
		c-0.1,2.7-0.1,5.4-0.6,8.2c-0.3,1.5,0.5,2.7,1.9,3.4c5.5,2.9,15.2,0.8,19-4.2c0.6-0.8,0.8-1.5,0.7-2.5c-0.3-2.6-0.6-5.2-0.8-7.9
		C407.4,277.9,402.8,278.9,398,278.7z"/>
	<path class="st31" d="M548,461.5c0.5-0.5,1.3-1,0.8-1.9c0.6-5.1-1-9.8-2.6-14.5c-0.7-2.3-1.7-4.5-3.1-6.5c-0.9-1.3-2-2.4-3.7-2.8
		c-0.3-1.4-1.1-1.1-2-0.7c-2.4,1.2-4.8,2.4-7.2,3.6c0-3.1,1.8-5.2,4-7c2.9-2.4,6.4-3.7,9.9-4.9c4-0.6,6.7,1.5,8.9,4.5
		c2.9,3.8,4.7,8.2,6.2,12.7c3.9,11.8,6.5,23.8,7.7,36.2c0.5,5.1-0.7,9.9-5,13.4c-1.4,0.6-2.9,1.2-4.5,1.2c-3.9,0-7-1.9-9.6-4.5
		c-5.1-5-8.3-11.3-11-17.9C540.5,468.7,544.3,465.1,548,461.5z M542.9,477.7c0.6,0.1,0.9-0.2,1-0.8c0.7-3.9,3.8-5.4,7-6.7
		c0.4-0.2,0.9-0.3,1.4-0.5c0.4-0.2,0.5-0.5,0.4-0.9c-0.1-0.4-0.4-0.5-0.8-0.6c-3.4-0.3-9.5,4.9-9.5,8.3
		C542.2,477,542.3,477.5,542.9,477.7z M547.1,483.5c0.5,0.1,0.8-0.3,0.9-0.7c0.6-3.4,3-4.8,5.9-5.7c0.5-0.2,0.9-0.4,0.8-1
		c-0.1-0.6-0.6-0.6-1.1-0.6c-3,0.2-6.7,3.5-7.2,6.5c0,0.2,0,0.4-0.1,0.5C546.3,483,546.5,483.5,547.1,483.5z"/>
	<path class="st31" d="M460,444.8c-0.2-0.6-0.5-1.2-0.7-1.9c3.4-2.6,6.8-5.2,10.3-7.7c0.6-0.5,1.5-0.8,0.7-1.8
		c0.7-2.1,0.3-4.2,0-6.3c-0.6-3.7-1.4-7.4-3.1-10.7c-0.8-1.6-1.9-3.1-3.9-3.4c-1.3-0.5-2.3,0.4-3.4,0.7c-1.3,0.4-2.6,0.9-3.9,1.3
		c0.1-2.3,1.4-3.8,3.1-5.1c3.1-2.4,6.7-3.5,10.5-4.2c3.7,0.9,5.8,3.7,7.3,7c2.6,5.5,3.9,11.3,5,17.2c1.2,6.3,1.8,12.6,2.4,18.9
		c0.2,2.2-0.1,4.4-0.2,6.5c-4.3,2.3-8.6,4.5-13,6.8C465.2,457.7,462.5,451.3,460,444.8z M463.8,446.6c-0.2,0.7-0.6,1.5,0.4,1.8
		c0.9,0.3,1-0.6,1.2-1.2c0.9-2.5,3-3.5,5.3-4.3c0.5-0.2,1-0.3,1.6-0.5c0.5-0.1,0.9-0.5,0.8-1c-0.1-0.6-0.7-0.6-1.6-0.5
		C468.8,441,464.7,443.9,463.8,446.6z M467,451.8c-0.2,0.6-0.5,1.4,0.3,1.8c0.9,0.4,1.1-0.5,1.3-1.1c0.8-2.3,2.6-3.2,4.8-3.8
		c0.5-0.2,1.1-0.3,1.1-1c-0.1-0.7-0.6-0.8-1.3-0.7C470.7,447.2,467.7,449.5,467,451.8z"/>
	<path class="st29" d="M466.2,319.9c0.1,0.6,0.5,1.1,0.9,1.6c19.1-11.8,32.5-28.4,40.6-49.2c3.5-8.9,5.5-18.2,7.9-27.4
		c2.5-9.4,6-18.4,10.2-27.2c0.9-2,1.9-3.9,2.1-6.2c0.2-1.5-0.1-2.8-1.7-3.4c-0.6-0.2-0.7-0.5-0.5-1c0.2-0.5,0.4-1.1,0.5-1.7
		c0.6-2.6-0.8-5.4-4.5-4.3c0.1-1.9,0.5-4.2-1.8-5c-2.3-0.8-3.7,0.8-5,2.4c-0.5-0.1-0.3-0.4-0.4-0.6c-0.3-1.4-0.8-2.8-2.3-3.2
		c-1.6-0.5-3,0.3-4,1.5c-2.2,2.5-3.5,5.5-4.9,8.5c-0.4,0.8-0.7,1.7-1.1,2.7c-0.7-1.3-1.3-2.4-2-3.5c-0.7-1-1.5-1.8-2.9-1.6
		c-1.3,0.2-1.6,1.2-2,2.3c-4.2,13.9-7.8,28-12.6,41.8c-3.7,10.6-8.3,20.7-16,29.1c-4.7,5.1-10,9.1-16.4,11.8c0,0.7,0.2,1.3,0.6,1.8
		c10.3-4.8,18.1-12.2,24.2-21.7c4.7-7.4,7.7-15.6,10.5-23.9c4.3-12.5,7.6-25.3,11.3-38c0.1-0.5,0.1-1.2,0.7-1.3
		c0.7-0.1,1,0.6,1.3,1.1c1.1,1.8,1.6,3.7,1.6,5.7c0,2.2,0.4,4.2,2.6,5.5c1,0.6,1.4,1.6,1.8,2.7c0.4,1.4,0.4,2.7,0.4,4.1
		c0,0.3-0.2,0.8,0.3,0.9c0.5,0.1,0.6-0.4,0.7-0.7c0.3-0.9,0.4-1.8,0.3-2.7c-0.3-2.3-1.3-4.3-2.9-6c-1.2-1.3-1.5-2.7-0.8-4.3
		c1.1-2.5,2-5.1,3.2-7.5c0.9-2,1.9-4.1,3.5-5.7c0.5-0.5,1.1-1,1.9-0.7c0.8,0.3,1,1,1.1,1.8c0.1,1.8,0.1,3.5-0.8,5.1
		c-1,1.9-1.9,3.8-2.8,5.7c-0.2,0.5-0.5,1.1,0.2,1.4c0.6,0.3,0.8-0.3,1.1-0.7c1.1-2,2.2-4,3.3-6c1-1.8,2.2-3.5,3.5-5.1
		c0.5-0.6,1.1-1.1,1.9-0.7c0.8,0.3,0.8,1.2,0.7,1.9c-0.1,1.3-0.5,2.6-1.1,3.8c-1.4,2.7-2.8,5.4-4.1,8.1c-0.3,0.5-0.5,1.1,0.2,1.4
		c0.6,0.3,0.8-0.3,1.1-0.7c1.1-2,2.3-4,3.4-6c0.7-1.2,1.6-2.1,2.6-3c0.5-0.4,1-0.9,1.8-0.5c0.8,0.4,0.7,1.2,0.7,1.9
		c-0.1,1.2-0.6,2.3-1.3,3.4c-1.1,1.9-2.3,3.7-3.5,5.6c-0.3,0.4-0.8,0.9-0.1,1.4c0.7,0.4,0.9-0.3,1.2-0.7c1-1.3,2-2.6,3-3.9
		c0.4-0.5,1-0.8,1.6-0.6c0.7,0.2,0.6,0.9,0.6,1.5c-0.1,1.5-0.7,2.9-1.4,4.3c-5.4,11-9.4,22.5-12.3,34.3c-2.1,8.4-4.3,16.8-7.7,24.8
		C496.6,293.9,484,309.1,466.2,319.9z"/>
	<path class="st30" d="M544.1,426.7c4-0.6,6.7,1.5,8.9,4.5c2.9,3.8,4.7,8.2,6.2,12.7c3.9,11.8,6.5,23.8,7.7,36.2
		c0.5,5.1-0.7,9.9-5,13.4c5.7-0.8,9.2-4.6,8.7-10.3c-1.4-16.3-4.9-32.1-11.6-47.1c-1.4-3.1-3.2-5.9-5.6-8.2
		C551.2,425.5,546.9,425,544.1,426.7z"/>
	<path class="st30" d="M469.5,405.7c3.7,0.9,5.8,3.7,7.3,7c2.6,5.5,3.9,11.3,5,17.2c1.2,6.3,1.8,12.6,2.4,18.9
		c0.2,2.2-0.1,4.4-0.2,6.5c1.1-0.5,2.2-1.1,3.3-1.6c-0.5-10.9-1.9-21.6-4.8-32.1c-1.2-4.2-2.5-8.4-4.9-12.1
		c-1.6-2.4-3.5-4.4-6.7-4.3C470.4,405.2,469.9,405.3,469.5,405.7z"/>
	<path class="st29" d="M536.8,472.3c3.7-3.6,7.5-7.2,11.2-10.8c0.5-0.5,1.3-1,0.8-1.9c-1-0.2-1.4,0.6-2,1.1
		c-6.2,5.6-12.4,11.2-18.6,16.9c0.2,0.7,0.5,1.4,0.7,2.1C531.5,477.1,534.2,474.7,536.8,472.3z"/>
	<path class="st29" d="M539.4,435.7c-0.3-1.4-1.1-1.1-2-0.7c-2.4,1.2-4.8,2.4-7.2,3.6c-4.6,2.4-9.3,4.7-13.9,7.1
		c0.3,0.5,0.5,1,0.8,1.5c6.7-3.4,13.5-6.8,20.2-10.2C538,436.6,538.8,436.3,539.4,435.7z"/>
	<path class="st29" d="M463.2,413c-1.3-0.5-2.3,0.4-3.4,0.7c-1.3,0.4-2.6,0.9-3.9,1.3c-2.2,0.8-4.3,1.6-6.5,2.5
		c0,0.6,0.1,1.2,0.1,1.8c4.2-1.5,8.4-3.1,12.6-4.6C462.9,414.4,463.5,414,463.2,413z"/>
	<path class="st32" d="M539.4,435.7c-0.6,0.6-1.4,0.9-2.2,1.3c-6.7,3.4-13.5,6.8-20.2,10.2c1.9,5,3.9,9.9,5.7,14.9
		c1.9,5.1,3.6,10.3,5.4,15.4c6.2-5.6,12.4-11.3,18.6-16.9c0.6-0.5,1-1.3,2-1.1c0.6-5.1-1-9.8-2.6-14.5c-0.7-2.3-1.7-4.5-3.1-6.5
		C542.2,437.1,541.1,436,539.4,435.7z"/>
	<path class="st32" d="M463.2,413c0.4,1-0.3,1.4-1.1,1.7c-4.2,1.5-8.4,3.1-12.6,4.6c1,9.7-0.2,19.4-1.1,29.1c0.5-0.3,1-0.6,1.5-1
		c6.1-4.4,12.2-8.7,18.4-13.1c0.6-0.4,1.1-1,1.9-0.9c0.7-2.1,0.3-4.2,0-6.3c-0.6-3.7-1.4-7.4-3.1-10.7
		C466.3,414.7,465.3,413.2,463.2,413z"/>
	<path class="st32" d="M422.7,411.5c0.2,5.5,1,10.9,3.1,16c1.7,4.1,4.1,7.7,8.2,9.9c1.2,0.6,0.7,1.6,0.8,2.5
		c0.1,0.6-0.2,1.5,0.8,1.5c0.9,0,0.6-0.8,0.7-1.4c0.1-0.5-0.3-1.2,0.6-1.3c0.6-0.1,1.2-0.1,1.1-0.9c-0.1-0.7-0.7-0.7-1.2-0.9
		c-2.3-0.8-4.3-2.2-5.9-4.1c-2.4-2.8-3.8-6-4.8-9.5c-1.3-4.8-1.8-9.8-1.8-14.8c0-0.6,0.3-1.5-0.6-1.6c-1.1-0.1-0.8,1-0.9,1.6
		C422.6,409.6,422.7,410.6,422.7,411.5z"/>
	<path class="st29" d="M448.3,450.9c3.6-2.7,7.3-5.3,10.9-8c3.4-2.6,6.8-5.2,10.3-7.7c0.6-0.5,1.5-0.8,0.7-1.8
		c-0.8-0.1-1.3,0.5-1.9,0.9c-6.1,4.4-12.3,8.7-18.4,13.1c-0.5,0.3-1,0.6-1.5,1C448.3,449.2,448.3,450.1,448.3,450.9z"/>
	<path class="st32" d="M436.5,469.4c0.2,1.5,0.4,3,0.6,4.5c0.1,0.6,0.2,1.3,1.1,1.1c0.7-0.1,0.6-0.8,0.5-1.3c-0.2-1.5-0.5-3-0.7-4.5
		c-0.1-0.6-0.2-1.2-0.9-1.2C436.4,468.1,436.4,468.8,436.5,469.4z"/>
	<path class="st32" d="M436.5,449.3c0-0.9,0-1.8,0-2.7c0-0.5-0.3-0.9-0.9-0.9c-0.5,0.1-0.7,0.4-0.7,0.9c0.1,1.8,0.2,3.5,0.2,5.3
		c0,0.5,0.2,0.8,0.8,0.8c0.5,0,0.7-0.4,0.7-0.8c0-0.8,0-1.7,0-2.5C436.6,449.3,436.5,449.3,436.5,449.3z"/>
	<path class="st32" d="M435.5,459.6c0.1,1.1,0.2,2.3,0.3,3.4c0,0.5,0.2,0.9,0.7,0.9c0.7,0,0.8-0.5,0.7-1c-0.1-1.6-0.2-3.3-0.3-4.9
		c0-0.6-0.1-1.2-0.8-1.1c-0.7,0.1-0.7,0.7-0.7,1.3C435.5,458.6,435.5,459.1,435.5,459.6C435.6,459.6,435.5,459.6,435.5,459.6z"/>
	<path class="st32" d="M356.4,516.8c1.1-0.3,2.6-0.7,4-1.1c0.5-0.1,0.9-0.4,0.8-1c-0.1-0.6-0.6-0.6-1.1-0.5
		c-1.5,0.4-2.9,0.8-4.4,1.1c-0.5,0.1-0.9,0.4-0.8,1C355.1,517,355.6,516.9,356.4,516.8z"/>
	<path class="st32" d="M486.1,463.4c0.2,0.8,0.6,1,1.2,0.6c1.5-0.8,3-1.5,4.5-2.3c0.4-0.2,0.7-0.5,0.5-1c-0.1-0.5-0.5-0.6-0.8-0.5
		c-1.7,0.8-3.5,1.7-5.2,2.6C486.2,463,486.2,463.3,486.1,463.4z"/>
	<path class="st32" d="M481.5,465.2c-1.6,0.8-3.3,1.7-5,2.6c-0.3,0.2-0.4,0.6-0.2,1c0.2,0.4,0.6,0.4,1,0.3c1.6-0.8,3.2-1.6,4.9-2.4
		c0.4-0.2,0.5-0.6,0.4-0.9C482.4,465.3,482.1,465.1,481.5,465.2z"/>
	<path class="st32" d="M471.7,470.2c-1.5,0.8-3.2,1.6-4.9,2.6c-0.3,0.2-0.4,0.6-0.2,1c0.2,0.4,0.6,0.5,0.9,0.3
		c1.6-0.8,3.3-1.6,4.9-2.4c0.4-0.2,0.5-0.5,0.4-0.9C472.7,470.2,472.3,470.1,471.7,470.2z"/>
	<path class="st32" d="M369.9,511c-1.4,0.5-3.1,1.1-4.7,1.7c-0.5,0.2-0.6,0.6-0.4,1c0.2,0.4,0.5,0.5,0.9,0.4
		c1.6-0.5,3.2-1.1,4.8-1.7c0.4-0.1,0.5-0.5,0.4-0.9C370.9,511.1,370.6,511,369.9,511z"/>
	<path class="st32" d="M496,458.4c0,0.7,0.4,1,0.9,0.8c1.8-0.8,3.5-1.7,5.2-2.5c0.4-0.2,0.4-0.6,0.2-1c-0.2-0.3-0.5-0.5-0.7-0.4
		c-1.7,0.8-3.5,1.7-5.2,2.6C496.1,458,496,458.3,496,458.4z"/>
	<path class="st32" d="M506.8,454.3c0.8-0.7,2.3-0.5,2.7-1.9c0.1-0.5-0.4-0.9-0.8-0.7c-1,0.5-2.4,0.6-2.9,1.9
		C505.7,454,506.1,454.4,506.8,454.3z"/>
	<path class="st32" d="M377.2,508.4c-0.1,0-0.1,0-0.2,0c-0.9,0.4-2,0.4-2.6,1.4c-0.2,0.3,0,0.8,0.4,0.8c1.1,0.2,2.1-0.5,3-0.9
		c0.3-0.1,0.5-0.5,0.3-0.9C377.9,508.4,377.6,508.3,377.2,508.4z"/>
	<path class="st32" d="M459.3,476.8c0,0.5,0.2,0.9,0.6,0.8c1.1-0.2,2.2-0.7,3-1.5c0.3-0.3,0.1-0.7-0.2-0.9c-0.6-0.4-1,0-1.5,0.3
		C460.5,475.9,459.5,475.9,459.3,476.8z"/>
	<path class="st32" d="M438.5,480.2c0.5,0.8,0.1,2.3,1.5,2.8c0.5,0.1,0.8-0.4,0.7-0.8c-0.4-1-0.1-2.5-1.5-3
		C438.7,479,438.4,479.5,438.5,480.2z"/>
	<path class="st32" d="M349.4,516.4c-0.7,0.3-2-0.5-2,0.8c0,1.3,1.4,0.7,2.2,0.7c0.6,0,1.7,0.3,1.6-0.9
		C351.1,515.9,350.1,516.5,349.4,516.4z"/>
	<path class="st25" d="M353.6,405.5c-0.7-0.2-1.5-0.2-2.2-0.1c-6.8,8-13.3,16.2-19.6,25c5.9-0.3,10.6-2.4,14.3-6.7
		C350.5,418.5,352.6,412.2,353.6,405.5z"/>
	<path class="st32" d="M335.7,319.3c1.3-5.2,2.4-10.4,4-15.4c1.9-5.9,4.2-11.8,6.9-17.4c0.2-0.3,0.2-0.7,0.4-1
		c-9.3-5.7-16-13.8-21.1-23.1c-6.1-11.2-11-23.1-15.8-34.9c-2.2-5.4-4.3-10.8-6.5-16.2c-0.2-0.5-0.2-1.4-0.9-1.4
		c-0.7,0-1,0.8-1.3,1.4c-0.8,1.9-1.2,3.8-1,5.9c0.2,2.1-0.1,3.9-1.8,5.4c-1.8,1.5-2,3.7-1.8,5.9c0.1,0.7,0.4,1.4,0.1,2.2
		c-1.2-0.6-1.2-1.7-1.3-2.7c-0.3-2.5,0.6-4.7,2-6.6c1.2-1.7,1.3-3.2,0.3-5.1c-1.7-3.3-3.4-6.6-5.6-9.6c-0.3-0.4-0.6-0.8-0.9-1.1
		c-1-0.9-1.8-2.6-3.4-1.7c-1.5,0.8-0.9,2.5-0.6,3.8c0.5,2.8,2.6,4.8,3.8,7.2c0.4,0.8,1.8,1.7,0.7,2.4c-1.1,0.7-1.4-0.9-1.9-1.6
		c-2-2.8-3.9-5.7-6.3-8.3c-0.8-0.8-1.7-2.3-3-1.4c-1.1,0.8-0.5,2.3,0,3.4c1.1,2.8,2.9,5.2,4.6,7.6c0.5,0.8,1,1.5,1.5,2.3
		c0.3,0.4,0.5,0.9-0.1,1.3c-0.6,0.4-0.9-0.1-1.2-0.5c-1.4-1.9-2.8-3.8-4.1-5.8c-0.8-1.2-1.9-2-3.1-2.8c-0.4-0.3-1-0.5-1.5-0.2
		c-0.6,0.4-0.7,1-0.6,1.6c0.2,1.4,0.9,2.5,1.7,3.6c1.3,1.8,2.8,3.5,4.1,5.3c0.3,0.4,0.8,0.7,0.2,1.2c-0.6,0.5-0.9,0-1.2-0.4
		c-1.1-1.1-2.2-2.3-3.2-3.5c-0.6-0.6-1.2-1.2-2-0.7c-0.8,0.5-0.4,1.3-0.2,2c0.3,1,0.7,2,1.2,2.8c7.5,12.2,13,25.3,17.9,38.7
		c5.7,15.7,13.6,30.3,24.7,43C324.1,310.5,329.4,315.4,335.7,319.3z"/>
	<path class="st32" d="M466.2,319.9c17.8-10.8,30.5-26.1,38.6-45.2c3.4-8,5.6-16.4,7.7-24.8c2.9-11.8,6.9-23.3,12.3-34.3
		c0.7-1.4,1.2-2.8,1.4-4.3c0-0.6,0.1-1.3-0.6-1.5c-0.6-0.2-1.2,0.1-1.6,0.6c-1,1.3-2,2.6-3,3.9c-0.3,0.4-0.6,1.1-1.2,0.7
		c-0.7-0.5-0.2-1,0.1-1.4c1.1-1.9,2.3-3.7,3.5-5.6c0.6-1,1.1-2.1,1.3-3.4c0.1-0.7,0.1-1.5-0.7-1.9c-0.8-0.4-1.3,0.1-1.8,0.5
		c-1,0.8-2,1.8-2.6,3c-1.1,2-2.3,4-3.4,6c-0.2,0.4-0.5,1-1.1,0.7c-0.7-0.3-0.5-0.9-0.2-1.4c1.4-2.7,2.8-5.4,4.1-8.1
		c0.6-1.2,1-2.5,1.1-3.8c0.1-0.7,0.1-1.6-0.7-1.9c-0.8-0.3-1.4,0.2-1.9,0.7c-1.4,1.6-2.5,3.3-3.5,5.1c-1.1,2-2.2,4-3.3,6
		c-0.2,0.4-0.5,1-1.1,0.7c-0.7-0.3-0.4-0.9-0.2-1.4c0.9-1.9,1.8-3.8,2.8-5.7c0.9-1.6,0.9-3.4,0.8-5.1c0-0.8-0.3-1.5-1.1-1.8
		c-0.8-0.3-1.4,0.2-1.9,0.7c-1.6,1.6-2.6,3.7-3.5,5.7c-1.1,2.5-2.1,5-3.2,7.5c-0.7,1.6-0.4,3.1,0.8,4.3c1.5,1.7,2.6,3.6,2.9,6
		c0.1,0.9,0,1.8-0.3,2.7c-0.1,0.3-0.2,0.8-0.7,0.7c-0.5-0.1-0.3-0.5-0.3-0.9c0.1-1.4,0.1-2.8-0.4-4.1c-0.4-1.1-0.8-2.1-1.8-2.7
		c-2.1-1.3-2.6-3.2-2.6-5.5c0-2.1-0.6-4-1.6-5.7c-0.3-0.5-0.7-1.2-1.3-1.1c-0.6,0.1-0.6,0.8-0.7,1.3c-3.7,12.7-7,25.5-11.3,38
		c-2.8,8.3-5.8,16.4-10.5,23.9c-6.1,9.5-13.9,16.9-24.2,21.7c1.1,3.9,2.9,7.4,4.6,11.1C459,306.8,462.3,313.5,466.2,319.9z"/>
	<path class="st32" d="M380.5,237.5c0.3-1.2,0.8-1.3,1.9-1c1.6,0.6,3.3,1,4.9,1.3c7.5,1.5,15,1.3,22.4-0.2c0.6-0.1,1.4-0.6,1.7,0.6
		c1,3.5,3.5,6.1,6.3,8.2c2.8,2.1,3.1,2.1,5.2-0.8c1.8-2.5,5.2-2.5,6.7,0c2.2,3.6-0.6,9.6-4.8,10c-1.5,0.1-1.9,0.7-2.1,2.1
		c-1.7,8.5-6.3,14.7-14.7,17.7c-4,1.4-8,1.9-12.2,1.4c-7.8-1.1-13.5-4.9-16.1-12.6c-1.2-3.5-1.5-7.2-1.5-10.5
		C378.2,247.9,379.1,242.7,380.5,237.5z M405.4,269.8c2.3-1.2,2.6-3,0.8-5c-0.5-0.6-1.2-1-1.9-0.6c-3.5,1.5-6.9,0.6-10.4-0.2
		c-1.9-0.4-3.8-1-5.7-0.9c-1.2,0.1-2.5,0.1-3,1.5c-0.6,1.6,0,2.9,1.2,3.9c1.8,1.5,4.1,2,6.4,2.4c1.5,0.3,3,0.3,4.3,0.4
		C400.1,271.2,402.9,271.1,405.4,269.8z M396.8,260.3c0.4-0.1,0.8-0.4,0.8-0.9c0-0.5-0.3-0.8-0.8-0.8c-0.3,0-0.6,0-0.9-0.1
		c-0.8-0.2-1.6-0.2-1.8-1.2c-0.1-0.9,0.5-1.3,1.1-1.7c1.2-0.5,1.4-1.5,1.6-2.6c0.2-1.7,0.2-3.4,0.1-5.1c0-0.4,0-1-0.6-1
		c-0.5,0-0.6,0.5-0.7,0.9c-0.2,1.5-0.3,3-0.4,4.5c-0.1,0.9-0.3,1.4-1.1,1.8c-1.1,0.5-1.7,1.5-1.8,2.6
		C392.2,259.1,394.9,261,396.8,260.3z M384,246.4c-0.5,0.5-0.7,1.2-0.1,1.8c0.6,0.5,0.9-0.1,1.3-0.4c1.8-1.6,3.7-1.6,5.8,0.1
		c0.4,0.3,0.7,0.9,1.2,0.5c0.5-0.5,0.2-1-0.2-1.4c-1.1-1.3-2.5-2-4.2-2.1C386.3,244.7,385,245.3,384,246.4z M403.9,248.2
		c-0.7,0.4-1.2,1-0.8,1.8c0.4,0.8,1.1,0.3,1.7-0.1c1.4-0.8,2.5-0.4,3.5,0.8c0.4,0.5,0.6,1,1,1.5c0.2,0.3,0.5,0.7,1,0.4
		c0.4-0.3,0.4-0.7,0.3-1.1c-0.5-2-2.8-3.8-4.9-3.7C405.1,247.7,404.5,247.8,403.9,248.2z M407.7,242.2c-0.6,0.1-1.4,0.2-1.4,0.9
		c0,0.9,0.8,0.6,1.4,0.7c1.4,0.3,2.7,0.6,4.1,0.9c0.6,0.1,1.1,0.2,1.4-0.5c0.2-0.7-0.3-1-0.8-1.2c-1.1-0.5-2.3-0.8-3.5-0.8
		C408.4,242.2,408.1,242.2,407.7,242.2z M387.7,240.1c-1,0.3-2.6,0.4-2.4,1.7c0.2,1.2,1.6,0.4,2.5,0.3c1-0.1,1.9-0.2,2.9-0.1
		c0.4,0,0.9,0.2,1.1-0.4c0.1-0.5-0.4-0.7-0.7-0.9c-0.8-0.4-1.7-0.7-2.2-0.7C388.2,240,387.9,240,387.7,240.1z M426.9,250.4
		c0.9,0,1-0.9,1-1.6c0-0.7-0.1-1.6-0.9-1.6c-1,0-0.9,0.9-1,1.5C426,249.5,426.1,250.4,426.9,250.4z M405.2,259.4
		c0.5,0,0.8-0.2,0.8-0.7c0-0.5-0.2-0.8-0.7-0.9c-0.5,0-0.8,0.2-0.8,0.7C404.5,259,404.7,259.4,405.2,259.4z"/>
	<path class="st32" d="M411.8,275.8c-4.5,2.2-9,3.2-13.8,2.9c-1.7-0.1-3.5-0.4-5.2-0.7c-0.8-0.1-1,0-1.1,0.8
		c-0.1,2.7-0.1,5.4-0.6,8.2c-0.3,1.5,0.5,2.7,1.9,3.4c5.5,2.9,15.2,0.8,19-4.2c0.6-0.8,0.8-1.5,0.7-2.5
		C412.3,281.1,412.1,278.5,411.8,275.8z"/>
	<path class="st30" d="M542.3,476.5c-0.1,0.5,0,1,0.6,1.2c0.6,0.1,0.9-0.2,1-0.8c0.7-3.9,3.8-5.4,7-6.7c0.4-0.2,0.9-0.3,1.4-0.5
		c0.4-0.2,0.5-0.5,0.4-0.9c-0.1-0.4-0.4-0.5-0.8-0.6C548.4,467.9,542.3,473.2,542.3,476.5z"/>
	<path class="st29" d="M546.4,482.4c0,0.6,0.2,1.1,0.7,1.1c0.5,0.1,0.8-0.3,0.9-0.7c0.6-3.4,3-4.8,5.9-5.7c0.5-0.2,0.9-0.4,0.8-1
		c-0.1-0.6-0.6-0.6-1.1-0.6c-3,0.2-6.7,3.5-7.2,6.5C546.4,482.1,546.4,482.3,546.4,482.4z"/>
	<path class="st29" d="M471.4,440.9c-2.6,0.1-6.7,3-7.6,5.7c-0.2,0.7-0.6,1.5,0.4,1.8c0.9,0.3,1-0.6,1.2-1.2c0.9-2.5,3-3.5,5.3-4.3
		c0.5-0.2,1-0.3,1.6-0.5c0.5-0.1,0.9-0.5,0.8-1C472.9,440.9,472.4,440.9,471.4,440.9z"/>
	<path class="st29" d="M473.1,447.1c-2.4,0.1-5.4,2.5-6.1,4.8c-0.2,0.6-0.5,1.4,0.3,1.8c0.9,0.4,1.1-0.5,1.3-1.1
		c0.8-2.3,2.6-3.2,4.8-3.8c0.5-0.2,1.1-0.3,1.1-1C474.3,447.1,473.8,447,473.1,447.1z"/>
	<path class="st29" d="M392.7,270.9c-2.3-0.4-4.5-0.9-6.4-2.4c-1.2-1-1.7-2.3-1.2-3.9c0.5-1.5,1.8-1.5,3-1.5c2-0.1,3.8,0.5,5.7,0.9
		c3.4,0.7,6.9,1.6,10.4,0.2c0.8-0.3,1.4,0,1.9,0.6c1.8,2,1.6,3.8-0.8,5c-2.5,1.3-5.4,1.4-8.4,1.6
		C395.8,271.3,394.2,271.2,392.7,270.9z M403.3,269.2c1.3,0,2.7-1.3,2.6-2.3c-0.1-0.7-0.3-1.4-1.3-1.3c-1.4,0.1-2.2,0.8-2.1,1.9
		C403,267.9,402,269.2,403.3,269.2z M396.1,266.2c-1.7,0.4-0.8,2-1,3.1c-0.3,1.3,1.1,0.6,1.6,0.7c1.2,0.1,1.2,0,1.2-2
		C398.4,266.5,397.3,265.9,396.1,266.2z M400,270c1.1-0.1,1.6-0.4,1.3-1.6c-0.2-0.9,0.4-2.1-1.4-2c-1.7,0-1,1.1-1.1,1.8
		C398.9,269,398.3,270.1,400,270z M394.3,266.8c0.4-1-0.4-1.2-1.1-1.1c-2,0.3-0.8,2.3-1.5,3.3c-0.3,0.4,0.9,0.5,1.7,0.8
		C394.7,269.1,393.9,267.7,394.3,266.8z M389.8,268.7c0.9,0.4,0.5-0.5,0.7-0.8c0.2-0.6,0.3-1.3,0.5-1.9c0.3-0.8-0.3-0.9-0.8-1
		c-0.6-0.2-0.9-0.1-1,0.6c-0.1,0.7-0.3,1.4-0.4,2.1C388.6,268.5,389.3,268.5,389.8,268.7z M387.6,267.3c0.9-0.1,0.5-1.3,0.8-1.9
		c0.3-0.5-0.1-0.8-0.6-0.7c-0.6,0.1-1.2,0.2-1.2,1.1C386.6,266.4,387,267.4,387.6,267.3z"/>
	<path class="st29" d="M392.2,256.9c0,2.2,2.7,4.1,4.6,3.5c0.4-0.1,0.8-0.4,0.8-0.9c0-0.5-0.3-0.8-0.8-0.8c-0.3,0-0.6,0-0.9-0.1
		c-0.8-0.2-1.6-0.2-1.8-1.2c-0.1-0.9,0.5-1.3,1.1-1.7c1.2-0.5,1.4-1.5,1.6-2.6c0.2-1.7,0.2-3.4,0.1-5.1c0-0.4,0-1-0.6-1
		c-0.5,0-0.6,0.5-0.7,0.9c-0.2,1.5-0.3,3-0.4,4.5c-0.1,0.9-0.3,1.4-1.1,1.8C392.9,254.9,392.3,255.9,392.2,256.9z"/>
	<path class="st29" d="M387.9,244.7c-1.5,0.1-2.8,0.6-3.9,1.7c-0.5,0.5-0.7,1.2-0.1,1.8c0.6,0.5,0.9-0.1,1.3-0.4
		c1.8-1.6,3.7-1.6,5.8,0.1c0.4,0.3,0.7,0.9,1.2,0.5c0.5-0.5,0.2-1-0.2-1.4C391,245.5,389.6,244.8,387.9,244.7z"/>
	<path class="st29" d="M405.8,247.7c-0.6,0-1.2,0.1-1.8,0.5c-0.7,0.4-1.2,1-0.8,1.8c0.4,0.8,1.1,0.3,1.7-0.1
		c1.4-0.8,2.5-0.4,3.5,0.8c0.4,0.5,0.6,1,1,1.5c0.2,0.3,0.5,0.7,1,0.4c0.4-0.3,0.4-0.7,0.3-1.1C410.2,249.5,407.9,247.7,405.8,247.7
		z"/>
	<path class="st29" d="M408.8,242.2c-0.4,0-0.7,0-1.1,0c-0.6,0.1-1.4,0.2-1.4,0.9c0,0.9,0.8,0.6,1.4,0.7c1.4,0.3,2.7,0.6,4.1,0.9
		c0.6,0.1,1.1,0.2,1.4-0.5c0.2-0.7-0.3-1-0.8-1.2C411.2,242.4,410,242.2,408.8,242.2z"/>
	<path class="st29" d="M388.8,240c-0.6,0-0.9,0-1.1,0.1c-1,0.3-2.6,0.4-2.4,1.7c0.2,1.2,1.6,0.4,2.5,0.3c1-0.1,1.9-0.2,2.9-0.1
		c0.4,0,0.9,0.2,1.1-0.4c0.1-0.5-0.4-0.7-0.7-0.9C390.2,240.2,389.4,239.9,388.8,240z"/>
	<path class="st29" d="M426,248.7c0,0.8,0.1,1.7,0.9,1.7c0.9,0,1-0.9,1-1.6c0-0.7-0.1-1.6-0.9-1.6C426,247.2,426.1,248.1,426,248.7z
		"/>
	<path class="st33" d="M404.5,258.5c0,0.5,0.2,0.8,0.7,0.9c0.5,0,0.8-0.2,0.8-0.7c0-0.5-0.2-0.8-0.7-0.9
		C404.9,257.8,404.6,258,404.5,258.5z"/>
	<path class="st32" d="M402.5,267.5c0.5,0.4-0.5,1.7,0.9,1.8c1.3,0,2.7-1.3,2.6-2.3c-0.1-0.7-0.3-1.4-1.3-1.3
		C403.2,265.7,402.4,266.3,402.5,267.5z"/>
	<path class="st32" d="M397.9,268c0.5-1.5-0.5-2-1.8-1.8c-1.7,0.4-0.8,2-1,3.1c-0.3,1.3,1.1,0.6,1.6,0.7
		C397.9,270.1,397.9,270,397.9,268z"/>
	<path class="st32" d="M398.8,268.2c0.1,0.8-0.4,1.9,1.2,1.8c1.1-0.1,1.6-0.4,1.3-1.6c-0.2-0.9,0.4-2.1-1.4-2
		C398.2,266.4,398.8,267.4,398.8,268.2z"/>
	<path class="st32" d="M393.4,269.7c1.3-0.6,0.5-2,0.9-2.9c0.4-1-0.4-1.2-1.1-1.1c-2,0.3-0.8,2.3-1.5,3.3
		C391.4,269.4,392.6,269.5,393.4,269.7z"/>
	<path class="st32" d="M388.8,267.7c-0.1,0.8,0.6,0.8,1,1c0.9,0.4,0.5-0.5,0.7-0.8c0.2-0.6,0.3-1.3,0.5-1.9c0.3-0.8-0.3-0.9-0.8-1
		c-0.6-0.2-0.9-0.1-1,0.6C389.1,266.3,388.9,267,388.8,267.7z"/>
	<path class="st32" d="M386.6,265.8c0.1,0.7,0.4,1.7,1.1,1.6c0.9-0.1,0.5-1.3,0.8-1.9c0.3-0.5-0.1-0.8-0.6-0.7
		C387.1,264.7,386.6,264.9,386.6,265.8z"/>
</g>
</svg>
